<svg version="1.1" xmlns="http://www.w3.org/2000/svg" viewBox="0 0 3413.2455084200938 1216.4861641278276" width="10239.736525260281" height="3649.4584923834827">
  <!-- svg-source:excalidraw -->
  
  <defs>
    <style class="style-fonts">
      @font-face {
        font-family: "Virgil";
        src: url("https://excalidraw.com/Virgil.woff2");
      }
      @font-face {
        font-family: "Cascadia";
        src: url("https://excalidraw.com/Cascadia.woff2");
      }
      @font-face {
        font-family: "Assistant";
        src: url("https://excalidraw.com/Assistant-Regular.woff2");
      }
    </style>
    
  </defs>
  <rect x="0" y="0" width="3413.2455084200938" height="1216.4861641278276" fill="#ffffff"></rect><g stroke-linecap="round" transform="translate(207.96538806444005 617.0879592582332) rotate(0 146.73525240606614 75.48565450078263)"><path d="M32 0 C111.99 -2.59, 191.39 -0.4, 261.47 0 M32 0 C85.97 -0.53, 137.93 -0.61, 261.47 0 M261.47 0 C281.33 -0.96, 293.17 11.9, 293.47 32 M261.47 0 C284.02 -1.44, 294.45 10.91, 293.47 32 M293.47 32 C293.68 52.23, 291.77 77.06, 293.47 118.97 M293.47 32 C294.57 63.73, 294.19 96.54, 293.47 118.97 M293.47 118.97 C291.61 138.39, 280.85 149.5, 261.47 150.97 M293.47 118.97 C293.3 138.01, 282.2 151.25, 261.47 150.97 M261.47 150.97 C176.81 153.88, 88.02 151.71, 32 150.97 M261.47 150.97 C200.98 151.94, 140.31 153.21, 32 150.97 M32 150.97 C11.94 152.11, -1.3 138.87, 0 118.97 M32 150.97 C12.45 149.27, 1.96 138.61, 0 118.97 M0 118.97 C-0.71 89.77, -0.88 61.25, 0 32 M0 118.97 C-0.03 92.63, -0.63 67.34, 0 32 M0 32 C-0.71 8.84, 8.7 -1.17, 32 0 M0 32 C-1.2 11.64, 8.64 0.31, 32 0" stroke="#1e1e1e" stroke-width="2" fill="none"></path></g><g transform="translate(244.01667288017416 640.0736137590159) rotate(0 110.68396759033203 52.5)"><text x="110.68396759033203" y="24.528" font-family="Virgil, Segoe UI Emoji" font-size="28px" fill="#1e1e1e" text-anchor="middle" style="white-space: pre;" direction="ltr" dominant-baseline="alphabetic">WARESTACK </text><text x="110.68396759033203" y="59.528" font-family="Virgil, Segoe UI Emoji" font-size="28px" fill="#1e1e1e" text-anchor="middle" style="white-space: pre;" direction="ltr" dominant-baseline="alphabetic">AI COPILOT / </text><text x="110.68396759033203" y="94.52799999999999" font-family="Virgil, Segoe UI Emoji" font-size="28px" fill="#1e1e1e" text-anchor="middle" style="white-space: pre;" direction="ltr" dominant-baseline="alphabetic">EDITOR</text></g><g stroke-linecap="round" transform="translate(647.9614234967994 665.429040722358) rotate(0 118.50819202034698 29.534924357630018)"><path d="M14.77 0 C64.31 -2.78, 116.03 -0.04, 222.25 0 M14.77 0 C57.87 1.4, 102.14 2.37, 222.25 0 M222.25 0 C233.15 -1.25, 237.87 5.14, 237.02 14.77 M222.25 0 C231.02 -1.32, 234.97 5.74, 237.02 14.77 M237.02 14.77 C238.18 22.51, 238.75 27.92, 237.02 44.3 M237.02 14.77 C236.09 22.15, 236.05 30.71, 237.02 44.3 M237.02 44.3 C236.87 52.15, 231.57 59.31, 222.25 59.07 M237.02 44.3 C238.73 56.05, 234.34 60.84, 222.25 59.07 M222.25 59.07 C147.08 59.27, 74.74 58.07, 14.77 59.07 M222.25 59.07 C178.65 60.72, 133.34 59.58, 14.77 59.07 M14.77 59.07 C6.47 57.59, 1.7 52.67, 0 44.3 M14.77 59.07 C5.67 57.79, -1.98 52.78, 0 44.3 M0 44.3 C0.22 35.35, 0.29 26.91, 0 14.77 M0 44.3 C-0.1 35.02, -0.73 26.97, 0 14.77 M0 14.77 C-1.04 5.77, 3.16 0.27, 14.77 0 M0 14.77 C0.66 4.84, 2.64 -0.36, 14.77 0" stroke="#1e1e1e" stroke-width="2" fill="none"></path></g><g transform="translate(690.7576480488847 677.4639650799879) rotate(0 75.71196746826172 17.5)"><text x="75.71196746826172" y="24.528" font-family="Virgil, Segoe UI Emoji" font-size="28px" fill="#1e1e1e" text-anchor="middle" style="white-space: pre;" direction="ltr" dominant-baseline="alphabetic">WORKFLOW</text></g><g stroke-linecap="round" transform="translate(1056.4590399142344 550.2543535803411) rotate(0 151.73525240606614 67.99060437371378)"><path d="M32 0 C83.07 -2.97, 135.46 -2.7, 271.47 0 M32 0 C92.84 -1.75, 153.16 -1.14, 271.47 0 M271.47 0 C291.87 -1.14, 301.69 11.37, 303.47 32 M271.47 0 C290.71 -1.38, 304.58 12.21, 303.47 32 M303.47 32 C303.81 59.35, 305.59 84.69, 303.47 103.98 M303.47 32 C302.69 45.7, 302.5 61.53, 303.47 103.98 M303.47 103.98 C304.96 126.97, 294.75 137.52, 271.47 135.98 M303.47 103.98 C304.83 123.26, 291.23 135.16, 271.47 135.98 M271.47 135.98 C178.5 136.42, 89.47 137.34, 32 135.98 M271.47 135.98 C186.63 133.93, 101.2 133.94, 32 135.98 M32 135.98 C11.32 134.87, -1.72 124.12, 0 103.98 M32 135.98 C10.34 134.42, 0.14 125.34, 0 103.98 M0 103.98 C-0.36 82.51, 1.42 63.76, 0 32 M0 103.98 C0.19 89.39, -0.17 74.09, 0 32 M0 32 C0.57 10.6, 8.68 -0.32, 32 0 M0 32 C-1.4 11.3, 8.44 -1.24, 32 0" stroke="#1e1e1e" stroke-width="2" fill="none"></path></g><g transform="translate(1091.056329978992 565.7449579540548) rotate(0 117.1379623413086 52.5)"><text x="117.1379623413086" y="24.528" font-family="Virgil, Segoe UI Emoji" font-size="28px" fill="#1e1e1e" text-anchor="middle" style="white-space: pre;" direction="ltr" dominant-baseline="alphabetic">WARESTACK CLI</text><text x="117.1379623413086" y="59.528" font-family="Virgil, Segoe UI Emoji" font-size="28px" fill="#1e1e1e" text-anchor="middle" style="white-space: pre;" direction="ltr" dominant-baseline="alphabetic">(validate/run)</text><text x="117.1379623413086" y="94.52799999999999" font-family="Virgil, Segoe UI Emoji" font-size="28px" fill="#1e1e1e" text-anchor="middle" style="white-space: pre;" direction="ltr" dominant-baseline="alphabetic">OPEN SOURCE</text></g><g stroke-linecap="round" transform="translate(596.4590399142344 390.2543535803411) rotate(0 168.11025240606614 72.5)"><path d="M32 0 C88.45 1.33, 147.34 2.38, 304.22 0 M32 0 C96.28 -0.67, 160.59 0.05, 304.22 0 M304.22 0 C323.73 -1.2, 337.18 12, 336.22 32 M304.22 0 C327.37 2.2, 337.16 10.26, 336.22 32 M336.22 32 C334.89 54.63, 335.33 81.02, 336.22 113 M336.22 32 C336.75 49.04, 336.98 65.18, 336.22 113 M336.22 113 C337.4 132.55, 324.19 144.28, 304.22 145 M336.22 113 C338.11 136.35, 325.89 143, 304.22 145 M304.22 145 C220.98 145.34, 134.84 147.56, 32 145 M304.22 145 C242.99 143, 180.58 142.97, 32 145 M32 145 C10.39 143.64, 0.12 134.35, 0 113 M32 145 C10.08 145.1, -0.58 133.95, 0 113 M0 113 C-2.41 93.68, -1.75 77.25, 0 32 M0 113 C1 85.22, -0.28 57.36, 0 32 M0 32 C-1.22 11.22, 8.73 -1.08, 32 0 M0 32 C-1.34 9.23, 9.15 1.98, 32 0" stroke="#1e1e1e" stroke-width="2" fill="none"></path></g><g transform="translate(621.363344444324 427.7543535803411) rotate(0 143.20594787597656 35)"><text x="143.20594787597656" y="24.528" font-family="Virgil, Segoe UI Emoji" font-size="28px" fill="#1e1e1e" text-anchor="middle" style="white-space: pre;" direction="ltr" dominant-baseline="alphabetic">USER's CUSTOM or </text><text x="143.20594787597656" y="59.528" font-family="Virgil, Segoe UI Emoji" font-size="28px" fill="#1e1e1e" text-anchor="middle" style="white-space: pre;" direction="ltr" dominant-baseline="alphabetic">EXISTING YAMLs</text></g><g stroke-linecap="round"><g transform="translate(507.4853601808809 696.5883047961898) rotate(0 67.63104954838968 0.38552315672342274)"><path d="M0.63 -0.75 C23.29 -0.72, 113.43 0.76, 135.77 0.9 M-0.49 1.47 C22.07 1.65, 112.74 2.58, 135.1 2.51" stroke="#1e1e1e" stroke-width="2" fill="none"></path></g><g transform="translate(507.4853601808809 696.5883047961898) rotate(0 67.63104954838968 0.38552315672342274)"><path d="M111.56 10.95 C116.97 9.27, 125.14 5.08, 135.1 2.51 M111.56 10.95 C116.44 8.21, 123.55 7.43, 135.1 2.51" stroke="#1e1e1e" stroke-width="2" fill="none"></path></g><g transform="translate(507.4853601808809 696.5883047961898) rotate(0 67.63104954838968 0.38552315672342274)"><path d="M111.64 -6.15 C117.13 -2.95, 125.28 -2.27, 135.1 2.51 M111.64 -6.15 C116.35 -4.73, 123.44 -1.36, 135.1 2.51" stroke="#1e1e1e" stroke-width="2" fill="none"></path></g></g><mask></mask><g stroke-linecap="round"><g transform="translate(774.7668044045499 537.2830445787758) rotate(0 0.846117754842254 66.4856545007826)"><path d="M0.51 0.13 C0.6 22.3, 1.12 110.07, 1.13 132.29 M-0.68 -0.85 C-0.86 21.53, -0.71 111.44, -0.11 133.46" stroke="#1e1e1e" stroke-width="2" fill="none"></path></g><g transform="translate(774.7668044045499 537.2830445787758) rotate(0 0.846117754842254 66.4856545007826)"><path d="M-8.95 110.08 C-5.76 117.36, -4 124.77, -0.11 133.46 M-8.95 110.08 C-5.71 118.64, -2.44 126.77, -0.11 133.46" stroke="#1e1e1e" stroke-width="2" fill="none"></path></g><g transform="translate(774.7668044045499 537.2830445787758) rotate(0 0.846117754842254 66.4856545007826)"><path d="M8.15 109.87 C5.31 117.3, 1.03 124.78, -0.11 133.46 M8.15 109.87 C5.65 118.4, 3.19 126.6, -0.11 133.46" stroke="#1e1e1e" stroke-width="2" fill="none"></path></g></g><mask></mask><g stroke-linecap="round" transform="translate(1636.4590399142344 550.2543535803411) rotate(0 190 70.00000000000006)"><path d="M32 0 C139.49 -0.22, 249.09 -0.25, 348 0 M32 0 C108.36 -0.82, 183.89 -1.62, 348 0 M348 0 C369.4 1.44, 378.14 8.75, 380 32 M348 0 C367.08 -1.69, 379.83 8.37, 380 32 M380 32 C381.75 54.76, 381.63 74.8, 380 108 M380 32 C380.3 48.9, 379.63 63.17, 380 108 M380 108 C380.18 130.57, 370.61 141.14, 348 140 M380 108 C378.51 127.69, 371.12 138.29, 348 140 M348 140 C225.47 139.51, 103.69 140.53, 32 140 M348 140 C274.52 140.05, 201.22 139.91, 32 140 M32 140 C8.95 141.45, -0.71 127.51, 0 108 M32 140 C8.4 138.66, -1.2 130.31, 0 108 M0 108 C-0.17 89.91, -0.42 74.58, 0 32 M0 108 C0.15 82.49, 0.08 59.08, 0 32 M0 32 C-1.42 10.13, 12.42 -0.27, 32 0 M0 32 C-1.79 9.02, 11.54 -1.71, 32 0" stroke="#1e1e1e" stroke-width="2" fill="none"></path></g><g transform="translate(1642.5131170626719 567.7543535803411) rotate(0 183.9459228515625 52.5)"><text x="183.9459228515625" y="24.528" font-family="Virgil, Segoe UI Emoji" font-size="28px" fill="#1e1e1e" text-anchor="middle" style="white-space: pre;" direction="ltr" dominant-baseline="alphabetic">LOCAL OR USER'S CLOUD</text><text x="183.9459228515625" y="59.528" font-family="Virgil, Segoe UI Emoji" font-size="28px" fill="#1e1e1e" text-anchor="middle" style="white-space: pre;" direction="ltr" dominant-baseline="alphabetic">RESOURCES </text><text x="183.9459228515625" y="94.52799999999999" font-family="Virgil, Segoe UI Emoji" font-size="28px" fill="#1e1e1e" text-anchor="middle" style="white-space: pre;" direction="ltr" dominant-baseline="alphabetic">OPEN SOURCE</text></g><g stroke-linecap="round"><g transform="translate(896.4590399142344 690.4401521955319) rotate(0 79.5 -29.86993107855983)"><path d="M-1.09 -0.72 C25.68 -10.62, 132.74 -49.29, 159.58 -58.94 M0.53 1.51 C27.29 -8.75, 132.41 -50.33, 158.93 -60.64" stroke="#1e1e1e" stroke-width="2" fill="none"></path></g><g transform="translate(896.4590399142344 690.4401521955319) rotate(0 79.5 -29.86993107855983)"><path d="M140.19 -44.1 C142.88 -46.46, 149.38 -49.33, 158.93 -60.64 M140.19 -44.1 C147.57 -49.89, 154.01 -58.1, 158.93 -60.64" stroke="#1e1e1e" stroke-width="2" fill="none"></path></g><g transform="translate(896.4590399142344 690.4401521955319) rotate(0 79.5 -29.86993107855983)"><path d="M133.94 -60.02 C138.01 -58.96, 145.83 -58.47, 158.93 -60.64 M133.94 -60.02 C143.86 -59.5, 152.77 -61.42, 158.93 -60.64" stroke="#1e1e1e" stroke-width="2" fill="none"></path></g></g><mask></mask><g stroke-linecap="round" transform="translate(1636.4590399142344 770.2543535803409) rotate(0 190 75)"><path d="M32 0 C98.94 0.04, 165.34 -0.49, 348 0 M32 0 C120.59 -2.28, 209.8 -2.12, 348 0 M348 0 C369.18 -2, 379.48 10.91, 380 32 M348 0 C371.05 1.91, 382.24 12.43, 380 32 M380 32 C378.52 64.54, 380.99 94.07, 380 118 M380 32 C380.72 50.88, 379.43 67.9, 380 118 M380 118 C381.55 137.85, 371.04 148.53, 348 150 M380 118 C380.75 138.05, 367.36 148.63, 348 150 M348 150 C257.66 149.77, 167.35 149.78, 32 150 M348 150 C258.18 150.97, 168.16 151.2, 32 150 M32 150 C9.62 150.85, -1.76 139.6, 0 118 M32 150 C11.32 149.92, -2.28 138.97, 0 118 M0 118 C-1.32 96.28, -1.49 75.57, 0 32 M0 118 C1.49 84.67, -0.17 50.89, 0 32 M0 32 C0.76 9.18, 10.13 0.8, 32 0 M0 32 C-1.4 10.13, 12.11 2.12, 32 0" stroke="#1e1e1e" stroke-width="2" fill="none"></path></g><g transform="translate(1644.2911016818125 792.7543535803409) rotate(0 182.16793823242188 52.5)"><text x="182.16793823242188" y="24.528" font-family="Virgil, Segoe UI Emoji" font-size="28px" fill="#1e1e1e" text-anchor="middle" style="white-space: pre;" direction="ltr" dominant-baseline="alphabetic">WARESTACK EPHEMERAL </text><text x="182.16793823242188" y="59.528" font-family="Virgil, Segoe UI Emoji" font-size="28px" fill="#1e1e1e" text-anchor="middle" style="white-space: pre;" direction="ltr" dominant-baseline="alphabetic">INFRA &amp; POWERFUL </text><text x="182.16793823242188" y="94.52799999999999" font-family="Virgil, Segoe UI Emoji" font-size="28px" fill="#1e1e1e" text-anchor="middle" style="white-space: pre;" direction="ltr" dominant-baseline="alphabetic">RUNNERS</text></g><g stroke-linecap="round"><g transform="translate(1395.9772328575195 720.3860262217947) rotate(0 117.41512072188169 -44.83648587973411)"><path d="M0.49 -0.21 C39.48 -15.2, 196 -73.71, 234.87 -88.81 M-0.71 -1.37 C38.04 -16.18, 194.49 -75.69, 233.95 -90.48" stroke="#1e1e1e" stroke-width="2" fill="none"></path></g><g transform="translate(1395.9772328575195 720.3860262217947) rotate(0 117.41512072188169 -44.83648587973411)"><path d="M215 -74.18 C221.67 -80.36, 230.64 -88.47, 233.95 -90.48 M215 -74.18 C218.95 -78.37, 222.64 -80.58, 233.95 -90.48" stroke="#1e1e1e" stroke-width="2" fill="none"></path></g><g transform="translate(1395.9772328575195 720.3860262217947) rotate(0 117.41512072188169 -44.83648587973411)"><path d="M208.95 -90.17 C218.07 -90.32, 229.33 -92.37, 233.95 -90.48 M208.95 -90.17 C213.98 -91.05, 218.9 -89.99, 233.95 -90.48" stroke="#1e1e1e" stroke-width="2" fill="none"></path></g></g><mask></mask><g stroke-linecap="round"><g transform="translate(1395.7614027882792 732.0145207048572) rotate(0 119.84881856297852 48.9586183954159)"><path d="M0.04 0.86 C39.72 17.03, 198.83 80.74, 238.58 96.77 M-1.39 0.27 C38.6 16.55, 200.34 81.43, 240.7 97.7" stroke="#1e1e1e" stroke-width="2" fill="none"></path></g><g transform="translate(1395.7614027882792 732.0145207048572) rotate(0 119.84881856297852 48.9586183954159)"><path d="M215.72 96.87 C225.67 95.28, 230.84 95.47, 240.7 97.7 M215.72 96.87 C221.11 97.43, 227.78 98.33, 240.7 97.7" stroke="#1e1e1e" stroke-width="2" fill="none"></path></g><g transform="translate(1395.7614027882792 732.0145207048572) rotate(0 119.84881856297852 48.9586183954159)"><path d="M222.1 81.01 C229.85 84.83, 232.84 90.43, 240.7 97.7 M222.1 81.01 C226.04 85.09, 231.26 89.58, 240.7 97.7" stroke="#1e1e1e" stroke-width="2" fill="none"></path></g></g><mask></mask><g stroke-linecap="round" transform="translate(2290.6194132819255 611.8113482379686) rotate(0 182.91981331615477 115)"><path d="M228.75 29 C254.98 45.5, 283.14 64.91, 320.09 87 M228.75 29 C247.62 41.32, 266.13 52.87, 320.09 87 M320.09 87 C367.02 114.22, 364.47 115.28, 320.09 145 M320.09 87 C367.73 118.01, 366.17 114, 320.09 145 M320.09 145 C293.35 161.59, 262.55 181.75, 228.75 201 M320.09 145 C300.26 156.42, 278.45 169.03, 228.75 201 M228.75 201 C182.72 228.64, 183.12 230.02, 137.25 201 M228.75 201 C182.41 230.1, 182.42 229.62, 137.25 201 M137.25 201 C115.41 186.71, 96.47 175.63, 45.75 145 M137.25 201 C106.69 181.91, 74.08 162.61, 45.75 145 M45.75 145 C-1.22 116.55, -1.94 114.92, 45.75 87 M45.75 145 C-1.34 114.56, -1.52 117.98, 45.75 87 M45.75 87 C66.58 71.37, 86.35 60.41, 137.25 29 M45.75 87 C65.96 73.3, 87.85 61.36, 137.25 29 M137.25 29 C181.5 -1.86, 183.05 -1.74, 228.75 29 M137.25 29 C183.19 1.88, 181.44 1.75, 228.75 29" stroke="#1e1e1e" stroke-width="2" fill="none"></path></g><g transform="translate(2389.25735186139 691.8113482379686) rotate(0 84.32196807861328 35)"><text x="84.32196807861328" y="24.528" font-family="Virgil, Segoe UI Emoji" font-size="28px" fill="#1e1e1e" text-anchor="middle" style="white-space: pre;" direction="ltr" dominant-baseline="alphabetic">WORKFLOW </text><text x="84.32196807861328" y="59.528" font-family="Virgil, Segoe UI Emoji" font-size="28px" fill="#1e1e1e" text-anchor="middle" style="white-space: pre;" direction="ltr" dominant-baseline="alphabetic">EXECUTION</text></g><g stroke-linecap="round"><g transform="translate(2017.4590399142353 622.0974979975917) rotate(0 143.40528305427927 47.47544601510032)"><path d="M-0.09 -1.2 C47.86 14.8, 238.53 78.9, 286.5 95.1 M-1.6 0.79 C46.27 17.08, 237.22 81.15, 285.38 96.71" stroke="#1e1e1e" stroke-width="2" fill="none"></path></g><g transform="translate(2017.4590399142353 622.0974979975917) rotate(0 143.40528305427927 47.47544601510032)"><path d="M260.39 97.46 C263.45 96.8, 270.74 98.67, 285.38 96.71 M260.39 97.46 C270.55 96.09, 278.84 96.33, 285.38 96.71" stroke="#1e1e1e" stroke-width="2" fill="none"></path></g><g transform="translate(2017.4590399142353 622.0974979975917) rotate(0 143.40528305427927 47.47544601510032)"><path d="M265.76 81.22 C267.61 83.84, 273.82 88.99, 285.38 96.71 M265.76 81.22 C274.01 86.11, 280.25 92.57, 285.38 96.71" stroke="#1e1e1e" stroke-width="2" fill="none"></path></g></g><mask></mask><g stroke-linecap="round"><g transform="translate(2017.4590399142344 858.2185796083515) rotate(0 142.60658602241756 -58.315938820244355)"><path d="M-0.31 0.14 C47.39 -18.93, 238.33 -96.33, 286.11 -115.64 M1.72 -0.83 C49.35 -20.11, 238.21 -97.78, 285.63 -117.24" stroke="#1e1e1e" stroke-width="2" fill="none"></path></g><g transform="translate(2017.4590399142344 858.2185796083515) rotate(0 142.60658602241756 -58.315938820244355)"><path d="M267.15 -100.4 C272.96 -103.79, 279.79 -108.26, 285.63 -117.24 M267.15 -100.4 C273.33 -106.94, 281.8 -112.05, 285.63 -117.24" stroke="#1e1e1e" stroke-width="2" fill="none"></path></g><g transform="translate(2017.4590399142344 858.2185796083515) rotate(0 142.60658602241756 -58.315938820244355)"><path d="M260.65 -116.22 C268.21 -114.96, 276.93 -114.8, 285.63 -117.24 M260.65 -116.22 C269.37 -116.74, 280.29 -115.89, 285.63 -117.24" stroke="#1e1e1e" stroke-width="2" fill="none"></path></g></g><mask></mask><g stroke-linecap="round"><g transform="translate(2596.4590399142344 430.2543535803411) rotate(0 -0.5 0)"><path d="M0.27 0.29 C0.17 0.33, -0.48 0.37, -0.65 0.27 M-0.03 0.14 C-0.13 0.08, -0.61 -0.17, -0.75 -0.21" stroke="#1e1e1e" stroke-width="2" fill="none"></path></g><g transform="translate(2596.4590399142344 430.2543535803411) rotate(0 -0.5 0)"><path d="M-0.26 -0.2 C-0.38 -0.18, -0.52 -0.19, -0.75 -0.21 M-0.26 -0.2 C-0.35 -0.19, -0.46 -0.21, -0.75 -0.21" stroke="#1e1e1e" stroke-width="2" fill="none"></path></g><g transform="translate(2596.4590399142344 430.2543535803411) rotate(0 -0.5 0)"><path d="M-0.38 0.12 C-0.47 0.05, -0.57 -0.05, -0.75 -0.21 M-0.38 0.12 C-0.45 0.06, -0.54 -0.03, -0.75 -0.21" stroke="#1e1e1e" stroke-width="2" fill="none"></path></g></g><mask></mask><g stroke-linecap="round"><g transform="translate(2658.5005714621943 727.5974298128704) rotate(0 133.47923422602003 0.5441157203713658)"><path d="M1.17 0.92 C45.63 0.76, 223.51 0.06, 267.67 0.02 M0.32 0.36 C44.61 0.22, 222.38 0.76, 267.09 0.99" stroke="#1e1e1e" stroke-width="2" fill="none"></path></g><g transform="translate(2658.5005714621943 727.5974298128704) rotate(0 133.47923422602003 0.5441157203713658)"><path d="M243.57 9.45 C253.85 7.24, 259.34 1.52, 267.09 0.99 M243.57 9.45 C249.86 6.14, 256.02 5.4, 267.09 0.99" stroke="#1e1e1e" stroke-width="2" fill="none"></path></g><g transform="translate(2658.5005714621943 727.5974298128704) rotate(0 133.47923422602003 0.5441157203713658)"><path d="M243.63 -7.65 C254.03 -3.45, 259.5 -2.77, 267.09 0.99 M243.63 -7.65 C250.05 -6.44, 256.19 -2.67, 267.09 0.99" stroke="#1e1e1e" stroke-width="2" fill="none"></path></g></g><mask></mask><g transform="translate(276.2172690344469 389.5086591797867) rotate(0 75.96666717529297 32.19999999999999)"><text x="0" y="25.760546874999996" font-family="Helvetica, Segoe UI Emoji" font-size="28px" fill="#1971c2" text-anchor="start" style="white-space: pre;" direction="ltr" dominant-baseline="alphabetic">FEATURE 1</text><text x="0" y="57.96054687499999" font-family="Helvetica, Segoe UI Emoji" font-size="28px" fill="#1971c2" text-anchor="start" style="white-space: pre;" direction="ltr" dominant-baseline="alphabetic">Copilot</text></g><g transform="translate(1144.7722246932772 390.21406679315214) rotate(0 75.96666717529297 32.19999999999999)"><text x="0" y="25.760546874999996" font-family="Helvetica, Segoe UI Emoji" font-size="28px" fill="#1971c2" text-anchor="start" style="white-space: pre;" direction="ltr" dominant-baseline="alphabetic">FEATURE 2</text><text x="0" y="57.96054687499999" font-family="Helvetica, Segoe UI Emoji" font-size="28px" fill="#1971c2" text-anchor="start" style="white-space: pre;" direction="ltr" dominant-baseline="alphabetic">Runners</text></g><g transform="translate(3036.4590399142344 390.2543535803411) rotate(0 80.91666412353516 32.19999999999999)"><text x="0" y="25.760546874999996" font-family="Helvetica, Segoe UI Emoji" font-size="28px" fill="#1971c2" text-anchor="start" style="white-space: pre;" direction="ltr" dominant-baseline="alphabetic">FEATURE 3:</text><text x="0" y="57.96054687499999" font-family="Helvetica, Segoe UI Emoji" font-size="28px" fill="#1971c2" text-anchor="start" style="white-space: pre;" direction="ltr" dominant-baseline="alphabetic">Observability</text></g><g stroke-linecap="round"><g transform="translate(896.4590399142344 710.4551817646416) rotate(0 79.5 69.48418287142295)"><path d="M0.11 0.74 C26.71 24.19, 133.41 116.76, 159.77 139.65 M-1.29 0.09 C25.2 23.29, 132.22 114.74, 159.22 137.89" stroke="#1e1e1e" stroke-width="2" fill="none"></path></g><g transform="translate(896.4590399142344 710.4551817646416) rotate(0 79.5 69.48418287142295)"><path d="M135.81 129.11 C144.34 133.12, 151.6 133.31, 159.22 137.89 M135.81 129.11 C142.08 130.55, 146.9 132.73, 159.22 137.89" stroke="#1e1e1e" stroke-width="2" fill="none"></path></g><g transform="translate(896.4590399142344 710.4551817646416) rotate(0 79.5 69.48418287142295)"><path d="M146.94 116.12 C151.85 124.23, 155.61 128.5, 159.22 137.89 M146.94 116.12 C150.76 120.44, 153.04 125.6, 159.22 137.89" stroke="#1e1e1e" stroke-width="2" fill="none"></path></g></g><mask></mask><g stroke-linecap="round" transform="translate(2941.710511193489 608.2543535803411) rotate(0 171.87426436037276 150)"><path d="M32 0 C119.33 -2.37, 203.82 -0.18, 311.75 0 M32 0 C95.44 1.15, 157.71 1.12, 311.75 0 M311.75 0 C332.8 -1.36, 343.87 10.69, 343.75 32 M311.75 0 C332.49 0.1, 343.17 10.29, 343.75 32 M343.75 32 C343.65 80.91, 344.2 132.25, 343.75 268 M343.75 32 C342.24 112.8, 341.17 193.52, 343.75 268 M343.75 268 C342.53 289.88, 331.14 298.92, 311.75 300 M343.75 268 C342.41 287.89, 331.56 301.98, 311.75 300 M311.75 300 C247.52 300.68, 182.61 302.46, 32 300 M311.75 300 C248.12 300.68, 185.9 301.57, 32 300 M32 300 C9.17 298.14, 0.05 287.59, 0 268 M32 300 C10.85 301.88, -1.56 291.09, 0 268 M0 268 C0.84 200.16, 0.7 134.61, 0 32 M0 268 C-2.11 185.05, -1.65 100.81, 0 32 M0 32 C-1.93 9.06, 9.21 0.27, 32 0 M0 32 C0.74 12.75, 9.17 0.61, 32 0" stroke="#1e1e1e" stroke-width="2" fill="none"></path></g><g transform="translate(2953.9568306075726 635.7543535803411) rotate(0 159.62794494628906 122.5)"><text x="159.62794494628906" y="24.528" font-family="Virgil, Segoe UI Emoji" font-size="28px" fill="#1e1e1e" text-anchor="middle" style="white-space: pre;" direction="ltr" dominant-baseline="alphabetic">WARESTACK </text><text x="159.62794494628906" y="59.528" font-family="Virgil, Segoe UI Emoji" font-size="28px" fill="#1e1e1e" text-anchor="middle" style="white-space: pre;" direction="ltr" dominant-baseline="alphabetic">DASHBOARD FOR </text><text x="159.62794494628906" y="94.52799999999999" font-family="Virgil, Segoe UI Emoji" font-size="28px" fill="#1e1e1e" text-anchor="middle" style="white-space: pre;" direction="ltr" dominant-baseline="alphabetic">OBSERVABILITY AND </text><text x="159.62794494628906" y="129.528" font-family="Virgil, Segoe UI Emoji" font-size="28px" fill="#1e1e1e" text-anchor="middle" style="white-space: pre;" direction="ltr" dominant-baseline="alphabetic">AI </text><text x="159.62794494628906" y="164.528" font-family="Virgil, Segoe UI Emoji" font-size="28px" fill="#1e1e1e" text-anchor="middle" style="white-space: pre;" direction="ltr" dominant-baseline="alphabetic">RECOMMENDATIONS </text><text x="159.62794494628906" y="199.528" font-family="Virgil, Segoe UI Emoji" font-size="28px" fill="#1e1e1e" text-anchor="middle" style="white-space: pre;" direction="ltr" dominant-baseline="alphabetic">ON PATTERN </text><text x="159.62794494628906" y="234.528" font-family="Virgil, Segoe UI Emoji" font-size="28px" fill="#1e1e1e" text-anchor="middle" style="white-space: pre;" direction="ltr" dominant-baseline="alphabetic">ANALYSIS </text></g><g stroke-linecap="round"><g transform="translate(1395.9772328575182 870.3183039119579) rotate(0 764.7409035283581 69.96802483419174)"><path d="M0.93 -0.89 C57.98 22.43, 86.68 137.32, 341.5 139.05 C596.33 140.79, 1332.05 31.13, 1529.87 9.53 M-0.04 1.26 C57.01 24.78, 86.2 138.59, 341.09 140.13 C595.99 141.66, 1331.47 32.15, 1529.31 10.5" stroke="#e03131" stroke-width="2" fill="none"></path></g><g transform="translate(1395.9772328575182 870.3183039119579) rotate(0 764.7409035283581 69.96802483419174)"><path d="M1507.09 21.96 C1510.92 20.8, 1516.15 17.05, 1529.31 10.5 M1507.09 21.96 C1512.48 18.61, 1518.1 16.5, 1529.31 10.5" stroke="#e03131" stroke-width="2" fill="none"></path></g><g transform="translate(1395.9772328575182 870.3183039119579) rotate(0 764.7409035283581 69.96802483419174)"><path d="M1504.92 5 C1509.14 7.81, 1514.88 8.04, 1529.31 10.5 M1504.92 5 C1510.69 5.8, 1516.85 7.84, 1529.31 10.5" stroke="#e03131" stroke-width="2" fill="none"></path></g></g><mask></mask><g transform="translate(1542.4590399142344 1029.2543535803409) rotate(0 135.60000610351562 16.100000000000023)"><text x="0" y="25.760546874999996" font-family="Helvetica, Segoe UI Emoji" font-size="28px" fill="#f08c00" text-anchor="start" style="white-space: pre;" direction="ltr" dominant-baseline="alphabetic">VALIDATION ERROR</text></g><g transform="translate(2676.4590399142344 670.2543535803411) rotate(0 67.68333435058594 16.099999999999994)"><text x="0" y="25.760546874999996" font-family="Helvetica, Segoe UI Emoji" font-size="28px" fill="#f08c00" text-anchor="start" style="white-space: pre;" direction="ltr" dominant-baseline="alphabetic">SUCCESS</text></g><g stroke-linecap="round" transform="translate(1056.4590399142344 790.2543535803409) rotate(0 151.73525240606614 57.5)"><path d="M28.75 0 C109.56 1.51, 191.21 1.84, 274.72 0 M28.75 0 C102.58 -0.23, 176.12 0.51, 274.72 0 M274.72 0 C293.17 -1.83, 301.5 8.41, 303.47 28.75 M274.72 0 C292.69 0.98, 301.44 9.89, 303.47 28.75 M303.47 28.75 C303.13 46.42, 304 64.59, 303.47 86.25 M303.47 28.75 C302.47 43.76, 302.42 56.78, 303.47 86.25 M303.47 86.25 C305.22 105.15, 292.33 113.57, 274.72 115 M303.47 86.25 C304.34 103.71, 293.27 115.93, 274.72 115 M274.72 115 C217.38 115.04, 155.47 116.31, 28.75 115 M274.72 115 C221.79 117.28, 169.83 116.32, 28.75 115 M28.75 115 C10.03 115.03, -1.64 105.29, 0 86.25 M28.75 115 C8.96 116.22, 1.61 103.92, 0 86.25 M0 86.25 C-1.67 72.04, -1.84 60.22, 0 28.75 M0 86.25 C-0.83 68.49, -1.01 51.2, 0 28.75 M0 28.75 C-0.71 11.55, 9.74 -1.27, 28.75 0 M0 28.75 C1.51 8.56, 11.47 -1.41, 28.75 0" stroke="#1e1e1e" stroke-width="2" fill="none"></path></g><g transform="translate(1063.3363516464724 795.2543535803409) rotate(0 144.85794067382812 52.5)"><text x="144.85794067382812" y="24.528" font-family="Virgil, Segoe UI Emoji" font-size="28px" fill="#1e1e1e" text-anchor="middle" style="white-space: pre;" direction="ltr" dominant-baseline="alphabetic">WARESTACK WEB </text><text x="144.85794067382812" y="59.528" font-family="Virgil, Segoe UI Emoji" font-size="28px" fill="#1e1e1e" text-anchor="middle" style="white-space: pre;" direction="ltr" dominant-baseline="alphabetic">APP (WIZZARD)</text><text x="144.85794067382812" y="94.52799999999999" font-family="Virgil, Segoe UI Emoji" font-size="28px" fill="#1e1e1e" text-anchor="middle" style="white-space: pre;" direction="ltr" dominant-baseline="alphabetic">validate/run from UI</text></g><g stroke-linecap="round" transform="translate(1035.97723285752 490.4917657532151) rotate(0 175.30974888327137 233.45026537785589)"><path d="M32 0 C113.97 -0.52, 195.98 -0.51, 318.62 0 M32 0 C112.97 -2.26, 193.74 -2.01, 318.62 0 M318.62 0 C338.91 0.85, 348.86 10.93, 350.62 32 M318.62 0 C340.61 -0.08, 348.33 10.3, 350.62 32 M350.62 32 C350.63 127.64, 350.54 223.85, 350.62 434.9 M350.62 32 C349.5 187.45, 348.57 342.66, 350.62 434.9 M350.62 434.9 C351.38 454.75, 339.41 467.71, 318.62 466.9 M350.62 434.9 C349.22 455.69, 341.4 469.02, 318.62 466.9 M318.62 466.9 C252.83 467.07, 190.92 465.92, 32 466.9 M318.62 466.9 C210.95 466.02, 102.33 465.96, 32 466.9 M32 466.9 C10.13 467.96, 1.4 454.93, 0 434.9 M32 466.9 C8.68 467.84, -0.71 454.58, 0 434.9 M0 434.9 C1.97 353.22, 2.83 270.08, 0 32 M0 434.9 C1.67 303.86, 1.92 171.35, 0 32 M0 32 C1.31 9.78, 12.31 -1.23, 32 0 M0 32 C1.59 11.1, 9.46 2.02, 32 0" stroke="#1e1e1e" stroke-width="2" fill="none"></path></g><g stroke-linecap="round" transform="translate(1616.4590399142344 490.2543535803411) rotate(0 220 234.3997701487333)"><path d="M32 0 C147.09 0.28, 261.87 -0.46, 408 0 M32 0 C171.42 1.73, 311.72 2.34, 408 0 M408 0 C427.57 0.27, 440.57 10.6, 440 32 M408 0 C427.05 -0.36, 438.6 11.3, 440 32 M440 32 C438.08 113.47, 439.74 195.62, 440 436.8 M440 32 C441.54 142.27, 442.19 252.93, 440 436.8 M440 436.8 C439.46 458.94, 428.12 468.33, 408 468.8 M440 436.8 C441.45 460.25, 427.61 466.67, 408 468.8 M408 468.8 C295.31 468.16, 181.57 468.76, 32 468.8 M408 468.8 C310.13 468.79, 213.08 469.15, 32 468.8 M32 468.8 C12.07 467.5, -1.73 458.95, 0 436.8 M32 468.8 C9.96 467.14, -2.22 456.29, 0 436.8 M0 436.8 C0.71 344.19, -0.01 252.1, 0 32 M0 436.8 C0.85 274.85, 1.17 113.36, 0 32 M0 32 C1.64 9.44, 12.05 0.38, 32 0 M0 32 C-1.21 12.69, 12.63 -2.17, 32 0" stroke="#1e1e1e" stroke-width="2" fill="none"></path></g><g transform="translate(1196.4590399142344 730.2543535803411) rotate(0 21 16.100000000000023)"><text x="0" y="25.760546874999996" font-family="Helvetica, Segoe UI Emoji" font-size="28px" fill="#f08c00" text-anchor="start" style="white-space: pre;" direction="ltr" dominant-baseline="alphabetic">OR</text></g><g transform="translate(1796.4590399142344 710.2543535803411) rotate(0 21 16.100000000000023)"><text x="0" y="25.760546874999996" font-family="Helvetica, Segoe UI Emoji" font-size="28px" fill="#f08c00" text-anchor="start" style="white-space: pre;" direction="ltr" dominant-baseline="alphabetic">OR</text></g><g transform="translate(178.51176206825426 49.50865917978672) rotate(0 471.45001220703125 80.49999999999999)"><text x="0" y="25.760546874999996" font-family="Helvetica, Segoe UI Emoji" font-size="27.999999999999996px" fill="#1e1e1e" text-anchor="start" style="white-space: pre;" direction="ltr" dominant-baseline="alphabetic">Innovative features:</text><text x="0" y="57.96054687499999" font-family="Helvetica, Segoe UI Emoji" font-size="27.999999999999996px" fill="#1e1e1e" text-anchor="start" style="white-space: pre;" direction="ltr" dominant-baseline="alphabetic">1. Workflow composition using Warestack's AI Copilot</text><text x="0" y="90.160546875" font-family="Helvetica, Segoe UI Emoji" font-size="27.999999999999996px" fill="#1e1e1e" text-anchor="start" style="white-space: pre;" direction="ltr" dominant-baseline="alphabetic">2. Workflow validation/run using Warestack's CLI (free) or web-app (paid)</text><text x="0" y="122.36054687499998" font-family="Helvetica, Segoe UI Emoji" font-size="27.999999999999996px" fill="#1e1e1e" text-anchor="start" style="white-space: pre;" direction="ltr" dominant-baseline="alphabetic">- Workflow execution on user (free) or Warestack-managed (paid) resources</text><text x="0" y="154.56054687499997" font-family="Helvetica, Segoe UI Emoji" font-size="27.999999999999996px" fill="#1e1e1e" text-anchor="start" style="white-space: pre;" direction="ltr" dominant-baseline="alphabetic">3. Dashboard for operational insights and recommendations (paid)</text></g><g transform="translate(10 1109.8861641278274) rotate(0 345.2833251953125 48.30000000000001)"><text x="345.2833251953125" y="25.760546874999996" font-family="Helvetica, Segoe UI Emoji" font-size="28px" fill="#2f9e44" text-anchor="middle" style="white-space: pre;" direction="ltr" dominant-baseline="alphabetic">VALUE: SIMPLICITY ON </text><text x="345.2833251953125" y="57.96054687499999" font-family="Helvetica, Segoe UI Emoji" font-size="28px" fill="#2f9e44" text-anchor="middle" style="white-space: pre;" direction="ltr" dominant-baseline="alphabetic">WORKFLOW COMPOSITION - </text><text x="345.2833251953125" y="90.160546875" font-family="Helvetica, Segoe UI Emoji" font-size="28px" fill="#2f9e44" text-anchor="middle" style="white-space: pre;" direction="ltr" dominant-baseline="alphabetic">FINE-TUNED WORKFLOWS - COMPOSITION SPEED</text></g><g transform="translate(1096.4716741915781 1110.2543535803409) rotate(0 133.76666259765625 32.19999999999999)"><text x="133.76666259765625" y="25.760546874999996" font-family="Helvetica, Segoe UI Emoji" font-size="28px" fill="#2f9e44" text-anchor="middle" style="white-space: pre;" direction="ltr" dominant-baseline="alphabetic">VALUE: COST </text><text x="133.76666259765625" y="57.96054687499999" font-family="Helvetica, Segoe UI Emoji" font-size="28px" fill="#2f9e44" text-anchor="middle" style="white-space: pre;" direction="ltr" dominant-baseline="alphabetic">&amp; TIME REDUCTION</text></g><g stroke-linecap="round" transform="translate(2176.4590399142344 190.2543535803411) rotate(0 120 40)"><path d="M0 0 C59.71 2.24, 118.92 0.11, 240 0 M0 0 C67.4 -1, 135.93 -1.07, 240 0 M240 0 C240.16 20.46, 240.42 35.86, 240 80 M240 0 C240.03 18.67, 239.7 36.31, 240 80 M240 80 C151.37 78.54, 64.38 78.63, 0 80 M240 80 C148.24 81.18, 56.98 81.54, 0 80 M0 80 C1.11 63.94, -1.25 43.36, 0 0 M0 80 C-0.72 51.94, -0.48 25.63, 0 0" stroke="#1e1e1e" stroke-width="2" fill="none"></path></g><g transform="translate(2199.985071408375 195.2543535803411) rotate(0 96.47396850585938 35)"><text x="96.47396850585938" y="24.528" font-family="Virgil, Segoe UI Emoji" font-size="28px" fill="#1e1e1e" text-anchor="middle" style="white-space: pre;" direction="ltr" dominant-baseline="alphabetic">ACCESS </text><text x="96.47396850585938" y="59.528" font-family="Virgil, Segoe UI Emoji" font-size="28px" fill="#1e1e1e" text-anchor="middle" style="white-space: pre;" direction="ltr" dominant-baseline="alphabetic">DELEGATION</text></g><g stroke-linecap="round" transform="translate(2136.4590399142344 10) rotate(0 370.0000000000002 259.99999999999994)"><path d="M32 0 C253.96 2.2, 476.39 1.91, 708 0 M32 0 C198.05 2.04, 364.35 1.59, 708 0 M708 0 C731.08 -0.27, 738.44 9.23, 740 32 M708 0 C730.21 -1.71, 739.38 11.59, 740 32 M740 32 C740.37 140.41, 738.61 250.26, 740 488 M740 32 C739.85 129.45, 740.09 225.98, 740 488 M740 488 C740.45 509.36, 727.7 519.87, 708 520 M740 488 C739.38 510.55, 730.94 518.5, 708 520 M708 520 C563.02 518.39, 418.55 518.58, 32 520 M708 520 C495.86 522.56, 283.91 522.85, 32 520 M32 520 C9.96 521.97, 0.16 508.06, 0 488 M32 520 C12.18 518.97, 1.89 507.92, 0 488 M0 488 C0.42 320.39, -1.3 150.61, 0 32 M0 488 C0.07 391.84, -0.11 295.84, 0 32 M0 32 C-1.74 10.92, 10.75 -1.9, 32 0 M0 32 C-1.98 10.03, 12.14 1.39, 32 0" stroke="#e03131" stroke-width="2" fill="none"></path></g><g transform="translate(1696.4663946505625 1110.2543535803409) rotate(0 122.11666870117188 32.19999999999999)"><text x="122.11666870117188" y="25.760546874999996" font-family="Helvetica, Segoe UI Emoji" font-size="28px" fill="#2f9e44" text-anchor="middle" style="white-space: pre;" direction="ltr" dominant-baseline="alphabetic">VALUE: COST </text><text x="122.11666870117188" y="57.96054687499999" font-family="Helvetica, Segoe UI Emoji" font-size="28px" fill="#2f9e44" text-anchor="middle" style="white-space: pre;" direction="ltr" dominant-baseline="alphabetic">&amp; PERFORMANCE</text></g><g transform="translate(2851.578821408375 1110.2543535803409) rotate(0 275.8333435058594 32.19999999999999)"><text x="275.8333435058594" y="25.760546874999996" font-family="Helvetica, Segoe UI Emoji" font-size="28px" fill="#2f9e44" text-anchor="middle" style="white-space: pre;" direction="ltr" dominant-baseline="alphabetic">VALUE: AGGREGATED OBSERVABILITY - </text><text x="275.8333435058594" y="57.96054687499999" font-family="Helvetica, Segoe UI Emoji" font-size="28px" fill="#2f9e44" text-anchor="middle" style="white-space: pre;" direction="ltr" dominant-baseline="alphabetic">ERROR HANDLING - AUTOMATION</text></g><g transform="translate(2356.489176022633 50.2543535803411) rotate(0 161.78334045410156 32.199999999999996)"><text x="161.78334045410156" y="25.760546874999996" font-family="Helvetica, Segoe UI Emoji" font-size="28px" fill="#2f9e44" text-anchor="middle" style="white-space: pre;" direction="ltr" dominant-baseline="alphabetic">WARESTACK OR SELF- </text><text x="161.78334045410156" y="57.96054687499999" font-family="Helvetica, Segoe UI Emoji" font-size="28px" fill="#2f9e44" text-anchor="middle" style="white-space: pre;" direction="ltr" dominant-baseline="alphabetic">MANAGED PROCESSES</text></g><g transform="translate(1456.4590399142344 590.2543535803411) rotate(0 52.88333511352539 16.099999999999994)"><text x="0" y="25.760546874999996" font-family="Helvetica, Segoe UI Emoji" font-size="28px" fill="#f08c00" text-anchor="start" style="white-space: pre;" direction="ltr" dominant-baseline="alphabetic">INVOKE</text></g><g transform="translate(1456.4590399142344 590.2543535803411) rotate(0 52.88333511352539 16.099999999999994)"><text x="0" y="25.760546874999996" font-family="Helvetica, Segoe UI Emoji" font-size="28px" fill="#f08c00" text-anchor="start" style="white-space: pre;" direction="ltr" dominant-baseline="alphabetic">INVOKE</text></g><g transform="translate(1456.4590399142344 590.2543535803411) rotate(0 52.88333511352539 16.099999999999994)"><text x="0" y="25.760546874999996" font-family="Helvetica, Segoe UI Emoji" font-size="28px" fill="#f08c00" text-anchor="start" style="white-space: pre;" direction="ltr" dominant-baseline="alphabetic">INVOKE</text></g><g transform="translate(2136.4590399142344 610.2543535803411) rotate(0 66.11666870117188 16.099999999999994)"><text x="0" y="25.760546874999996" font-family="Helvetica, Segoe UI Emoji" font-size="28px" fill="#f08c00" text-anchor="start" style="white-space: pre;" direction="ltr" dominant-baseline="alphabetic">EXECUTE</text></g><g stroke-linecap="round"><g transform="translate(2576.4590399142344 790.2543535803409) rotate(0 174.5 9.991594395715993)"><path d="M0.46 -0.89 C10.56 2.67, 1.71 20.38, 59.68 20.48 C117.65 20.58, 299.93 2.93, 348.27 -0.3 M-0.76 1.26 C9.23 4.53, -0.03 18.68, 58.56 18.61 C117.15 18.55, 302.14 4.12, 350.78 0.87" stroke="#e03131" stroke-width="2" fill="none"></path></g><g transform="translate(2576.4590399142344 790.2543535803409) rotate(0 174.5 9.991594395715993)"><path d="M327.96 11.07 C331.62 8.18, 338.98 5.24, 350.78 0.87 M327.96 11.07 C333.46 7.11, 340.54 4.35, 350.78 0.87" stroke="#e03131" stroke-width="2" fill="none"></path></g><g transform="translate(2576.4590399142344 790.2543535803409) rotate(0 174.5 9.991594395715993)"><path d="M326.74 -5.98 C330.55 -5.09, 338.18 -4.24, 350.78 0.87 M326.74 -5.98 C332.68 -5.24, 340.1 -3.29, 350.78 0.87" stroke="#e03131" stroke-width="2" fill="none"></path></g></g><mask></mask><g transform="translate(2616.4590399142344 830.2543535803409) rotate(0 136.11666870117188 16.100000000000023)"><text x="0" y="25.760546874999996" font-family="Helvetica, Segoe UI Emoji" font-size="28px" fill="#f08c00" text-anchor="start" style="white-space: pre;" direction="ltr" dominant-baseline="alphabetic">EXECUTION ERROR</text></g><g stroke-linecap="round" transform="translate(2176.4590399142344 370.2543535803411) rotate(0 180 70)"><path d="M0 0 C0 0, 0 0, 0 0 M0 0 C0 0, 0 0, 0 0 M-0.26 6.4 C1.49 5.47, 2.77 3.54, 4.99 0.36 M-0.26 6.4 C0.62 4.86, 1.79 3.66, 4.99 0.36 M0.13 12.04 C3.31 9.6, 3.99 6.48, 10.63 -0.03 M0.13 12.04 C2.61 9.29, 3.92 7.59, 10.63 -0.03 M-0.13 18.44 C2.19 12.82, 5.21 10.61, 15.62 0.33 M-0.13 18.44 C2.75 13.73, 5.96 10.42, 15.62 0.33 M0.27 24.08 C4.44 17.99, 9.1 13.92, 21.26 -0.07 M0.27 24.08 C5.15 19.76, 9.68 13.69, 21.26 -0.07 M0 30.48 C8.63 20.55, 19.17 10.15, 26.25 0.29 M0 30.48 C6.99 21.72, 15.83 12.57, 26.25 0.29 M-0.26 36.88 C9.3 25.54, 17.35 14.73, 31.89 -0.1 M-0.26 36.88 C12.25 22.27, 25.46 7.13, 31.89 -0.1 M0.14 42.52 C7.89 32.92, 14.32 24.08, 36.88 0.26 M0.14 42.52 C12.91 26.16, 28.33 10.86, 36.88 0.26 M-0.12 48.92 C9.02 37.66, 16.8 29.18, 42.52 -0.14 M-0.12 48.92 C9.1 38.98, 17.94 27.59, 42.52 -0.14 M0.27 54.56 C17.89 33.98, 38.81 10.52, 47.51 0.22 M0.27 54.56 C15.69 36, 32.02 17.96, 47.51 0.22 M0.01 60.96 C15.1 44.29, 32.28 23.24, 53.15 -0.17 M0.01 60.96 C16.59 41.87, 33.63 22.4, 53.15 -0.17 M-0.25 67.36 C13.24 49.73, 31.35 34.71, 58.14 0.19 M-0.25 67.36 C12.36 51.68, 26.7 34.04, 58.14 0.19 M0.14 73 C17.13 51.96, 34.13 35.97, 63.78 -0.21 M0.14 73 C14.21 58.25, 28.51 42.02, 63.78 -0.21 M-0.12 79.4 C24.01 50.81, 48.17 19.95, 68.77 0.15 M-0.12 79.4 C23.96 51.99, 48.7 24.54, 68.77 0.15 M0.28 85.04 C23.17 59.44, 44.42 33.75, 74.41 -0.24 M0.28 85.04 C15.68 66.49, 31.88 49.24, 74.41 -0.24 M0.01 91.44 C19.3 65.6, 43.44 41.1, 79.4 0.12 M0.01 91.44 C20.76 66.55, 41.89 43.59, 79.4 0.12 M-0.25 97.84 C18.04 77.29, 37.24 55.29, 85.04 -0.28 M-0.25 97.84 C24.28 70.92, 49.74 41.84, 85.04 -0.28 M0.15 103.48 C32.79 68.19, 65.1 29.06, 90.03 0.08 M0.15 103.48 C17.89 81.85, 38.08 59.18, 90.03 0.08 M-0.11 109.88 C27.47 77.86, 54.81 48.25, 95.67 -0.31 M-0.11 109.88 C38.84 65.27, 75.78 23.39, 95.67 -0.31 M0.28 115.52 C34.74 75.98, 68.91 38.31, 100.66 0.05 M0.28 115.52 C34.98 74.26, 71.76 32.64, 100.66 0.05 M0.02 121.92 C22.83 96.11, 46.43 69.09, 106.3 -0.34 M0.02 121.92 C37.34 77.92, 76.17 32.86, 106.3 -0.34 M-0.24 128.32 C44.99 77.61, 87.32 25.71, 111.29 0.02 M-0.24 128.32 C32.04 91.95, 64.91 54.39, 111.29 0.02 M0.15 133.96 C42.55 85.68, 85.11 38.21, 116.27 0.38 M0.15 133.96 C26.88 105.64, 51.57 76.16, 116.27 0.38 M-0.11 140.36 C27.58 110.48, 53.11 76.13, 121.92 -0.02 M-0.11 140.36 C42.08 91.63, 82.83 44.46, 121.92 -0.02 M5.53 139.96 C45.74 94.78, 82.14 50.08, 126.91 0.34 M5.53 139.96 C37.03 102.14, 70 65.98, 126.91 0.34 M10.52 140.32 C36.37 111.4, 61.86 81.99, 132.55 -0.05 M10.52 140.32 C38.04 107.18, 66.44 75.96, 132.55 -0.05 M16.16 139.93 C59.16 89.82, 103.77 38.29, 137.54 0.31 M16.16 139.93 C60.79 89.71, 104.25 39.12, 137.54 0.31 M21.15 140.29 C50.96 104.65, 81.47 71.65, 143.18 -0.09 M21.15 140.29 C55.24 103.63, 85.76 68.02, 143.18 -0.09 M26.79 139.89 C66.92 92.53, 109.96 46.13, 148.17 0.27 M26.79 139.89 C61.36 99.98, 95.44 59.98, 148.17 0.27 M31.78 140.25 C70.35 97.43, 105.65 57.71, 153.81 -0.12 M31.78 140.25 C71.77 94.18, 112.8 45.96, 153.81 -0.12 M37.42 139.86 C63.66 109.24, 89.84 81.36, 158.8 0.24 M37.42 139.86 C80.31 90.2, 121.72 41.46, 158.8 0.24 M42.41 140.22 C72.48 104.32, 105.4 66.82, 164.44 -0.16 M42.41 140.22 C76.9 100.89, 111.67 60.35, 164.44 -0.16 M48.05 139.82 C92.96 88.78, 138.46 38.07, 169.43 0.2 M48.05 139.82 C95.55 84.05, 141.94 30.03, 169.43 0.2 M53.04 140.18 C84.75 105.33, 116.12 67.65, 175.07 -0.19 M53.04 140.18 C100.05 85.36, 148.56 31.49, 175.07 -0.19 M58.68 139.79 C86.61 106.52, 114.3 74.19, 180.06 0.17 M58.68 139.79 C105.15 85.42, 152.43 31.8, 180.06 0.17 M63.67 140.15 C110.72 87.02, 159.67 30.04, 185.7 -0.23 M63.67 140.15 C91.74 106.29, 120.46 73.36, 185.7 -0.23 M69.31 139.76 C102.15 103.86, 131.36 69.73, 190.69 0.13 M69.31 139.76 C96.46 108.8, 123.69 76.75, 190.69 0.13 M74.3 140.12 C123.38 85.55, 169.1 30.29, 196.33 -0.26 M74.3 140.12 C106.69 104.69, 137.31 68.28, 196.33 -0.26 M79.29 140.48 C125.87 86.78, 176.39 30.41, 201.32 0.1 M79.29 140.48 C123.52 91.09, 166.99 42.61, 201.32 0.1 M84.93 140.08 C125.13 91.49, 165.97 45.59, 206.96 -0.3 M84.93 140.08 C109.9 110.85, 137.03 80.47, 206.96 -0.3 M89.92 140.44 C136.96 88.73, 184.45 33.96, 211.95 0.06 M89.92 140.44 C127.01 98.46, 165.33 54.17, 211.95 0.06 M95.56 140.05 C140.16 89.79, 184.18 40.16, 217.59 -0.33 M95.56 140.05 C129.76 100.87, 164.87 60.11, 217.59 -0.33 M100.55 140.41 C128.77 103.46, 158.3 71.3, 222.58 0.03 M100.55 140.41 C126.63 112.49, 151.3 84.39, 222.58 0.03 M106.19 140.01 C145.28 92.65, 184.17 48.23, 228.22 -0.36 M106.19 140.01 C153.76 84, 201.69 30.99, 228.22 -0.36 M111.18 140.37 C138.8 110.61, 165.5 79.03, 233.21 0 M111.18 140.37 C137.44 107.16, 165.92 76.11, 233.21 0 M116.82 139.98 C156.09 91.73, 195.85 48.3, 238.19 0.36 M116.82 139.98 C147.77 103.24, 179.27 65.27, 238.19 0.36 M121.81 140.34 C150.48 104.61, 179.37 74.35, 243.84 -0.04 M121.81 140.34 C166.74 87.85, 211.07 34.99, 243.84 -0.04 M127.45 139.94 C160.68 101.17, 192.31 67.29, 248.82 0.32 M127.45 139.94 C150.98 112.24, 175.42 85.24, 248.82 0.32 M132.44 140.3 C178.9 83.97, 229.74 26.06, 254.47 -0.07 M132.44 140.3 C165.86 104.43, 199.07 66.65, 254.47 -0.07 M138.08 139.91 C163.81 110.26, 189.43 80.71, 259.45 0.29 M138.08 139.91 C174 97.74, 211.37 57.52, 259.45 0.29 M143.07 140.27 C185.12 90.92, 223.82 44.57, 265.1 -0.11 M143.07 140.27 C185.56 91.97, 228.33 40.96, 265.1 -0.11 M148.71 139.87 C178.66 108.98, 206.1 75.17, 270.08 0.25 M148.71 139.87 C196.61 87.31, 242.45 31.48, 270.08 0.25 M153.7 140.23 C184.63 102.71, 216.86 70.72, 275.73 -0.14 M153.7 140.23 C195.48 90.22, 237.71 42.09, 275.73 -0.14 M159.34 139.84 C185.95 109.46, 210.98 80.01, 280.71 0.22 M159.34 139.84 C201.1 91.86, 243.64 44.23, 280.71 0.22 M164.33 140.2 C194.93 102.63, 226.38 65.11, 286.36 -0.18 M164.33 140.2 C205.06 94.93, 245.73 47.41, 286.36 -0.18 M169.97 139.8 C194.49 109.72, 219.45 81.18, 291.34 0.18 M169.97 139.8 C211.11 91.67, 252.74 42.67, 291.34 0.18 M174.96 140.16 C206.31 103.74, 234.71 69.82, 296.99 -0.21 M174.96 140.16 C210.6 99.21, 246.58 57, 296.99 -0.21 M180.6 139.77 C218.88 98.85, 255.18 56.37, 301.97 0.15 M180.6 139.77 C209.83 107.03, 237.68 75.97, 301.97 0.15 M185.59 140.13 C213.87 106.62, 241.62 76.06, 307.62 -0.25 M185.59 140.13 C233.05 87.11, 278.52 33.24, 307.62 -0.25 M191.23 139.74 C230.08 95.64, 264.28 55.54, 312.6 0.11 M191.23 139.74 C235.27 89.99, 277.01 41.54, 312.6 0.11 M196.22 140.1 C242.33 84.55, 293.3 31.38, 318.25 -0.28 M196.22 140.1 C220.97 109.96, 245.43 81.25, 318.25 -0.28 M201.21 140.46 C242.25 96.88, 279.07 51.13, 323.23 0.08 M201.21 140.46 C234.41 100.3, 268.41 62.39, 323.23 0.08 M206.85 140.06 C234.39 109.99, 256.98 80.35, 328.88 -0.31 M206.85 140.06 C230.39 111.64, 255.32 83.77, 328.88 -0.31 M211.84 140.42 C256.77 92.41, 300.81 39.99, 333.86 0.05 M211.84 140.42 C253.94 94.27, 294.83 47.25, 333.86 0.05 M217.48 140.03 C264.38 87.72, 310.35 35.15, 339.51 -0.35 M217.48 140.03 C247.77 105.69, 278.61 70.79, 339.51 -0.35 M222.47 140.39 C257.84 99.9, 292.36 58.81, 344.49 0.01 M222.47 140.39 C257.08 101.09, 290.45 63.47, 344.49 0.01 M228.11 139.99 C259.23 103.69, 293.34 67.4, 349.48 0.37 M228.11 139.99 C254.06 109.15, 281.12 79.23, 349.48 0.37 M233.1 140.35 C273.17 94.2, 310.97 48.21, 355.12 -0.02 M233.1 140.35 C274.22 91.44, 316.5 42.22, 355.12 -0.02 M238.74 139.96 C269.67 102.74, 300.62 70.34, 360.11 0.34 M238.74 139.96 C271.86 102.38, 302.32 66.18, 360.11 0.34 M243.73 140.32 C281.65 96.88, 321.11 50.31, 360.51 5.98 M243.73 140.32 C275.29 103.1, 306.22 68.03, 360.51 5.98 M249.37 139.92 C273.91 110.5, 299.06 82.98, 360.24 12.38 M249.37 139.92 C282.85 100.81, 315.83 61.29, 360.24 12.38 M254.36 140.28 C286.57 104.3, 316.37 66.3, 359.98 18.78 M254.36 140.28 C284.46 106.64, 312.47 74.91, 359.98 18.78 M260 139.89 C302.21 94.62, 341.33 49.25, 360.38 24.42 M260 139.89 C296.91 98.94, 332 58.51, 360.38 24.42 M264.99 140.25 C294.64 110.3, 321.89 77.66, 360.12 30.82 M264.99 140.25 C285.05 117.16, 305.17 93.8, 360.12 30.82 M270.63 139.85 C303.85 100.69, 338.91 62.81, 360.51 36.46 M270.63 139.85 C290.21 115.93, 310.49 94.76, 360.51 36.46 M275.62 140.21 C300.89 112.6, 323.03 87.2, 360.25 42.86 M275.62 140.21 C299.86 112.17, 322.59 84.41, 360.25 42.86 M281.26 139.82 C303.87 113.28, 325.64 87.91, 359.99 49.25 M281.26 139.82 C308.91 108.87, 335.06 79.43, 359.99 49.25 M286.25 140.18 C312.4 111.82, 334.08 83.23, 360.38 54.9 M286.25 140.18 C308.99 113.97, 332.52 88.35, 360.38 54.9 M291.89 139.79 C304.86 124.24, 320.81 106.07, 360.12 61.3 M291.89 139.79 C317.61 109.26, 343.85 79.69, 360.12 61.3 M296.88 140.15 C309.48 126.4, 321.64 107.42, 360.52 66.94 M296.88 140.15 C312.25 122.5, 327.71 105.22, 360.52 66.94 M302.52 139.75 C323.2 115.13, 343 93.8, 360.25 73.34 M302.52 139.75 C318.43 121.41, 334.63 102.86, 360.25 73.34 M307.51 140.11 C328.04 117.23, 343.99 97.35, 359.99 79.73 M307.51 140.11 C320.8 125.24, 333.9 110.42, 359.99 79.73 M312.49 140.47 C324.64 123.57, 337.98 108.28, 360.39 85.38 M312.49 140.47 C326.19 122.06, 342.65 104.64, 360.39 85.38 M318.14 140.08 C332.99 122.21, 347.66 104.48, 360.13 91.78 M318.14 140.08 C329.02 126.91, 338.92 114.55, 360.13 91.78 M323.12 140.44 C337.34 127.85, 346.97 111.19, 360.52 97.42 M323.12 140.44 C334.79 128.19, 345.08 115.09, 360.52 97.42 M328.77 140.04 C341.36 126.26, 354.08 110.8, 360.26 103.82 M328.77 140.04 C340.7 125.53, 354.09 111.75, 360.26 103.82 M333.75 140.4 C342.53 130.15, 350.14 122.2, 360 110.21 M333.75 140.4 C344.45 128.22, 354.28 115.95, 360 110.21 M339.4 140.01 C343.44 131.7, 352.25 128.17, 360.39 115.86 M339.4 140.01 C345.67 131.32, 352.72 124.86, 360.39 115.86 M344.38 140.37 C346.74 136.47, 352.7 131.52, 360.13 122.25 M344.38 140.37 C347.46 135.62, 351.28 131.58, 360.13 122.25 M350.03 139.97 C355.08 134.19, 358.51 129.69, 360.52 127.9 M350.03 139.97 C354.07 134.77, 358.3 131.57, 360.52 127.9 M355.01 140.33 C356.42 138.96, 358.7 136.53, 360.26 134.3 M355.01 140.33 C356.73 138.7, 357.91 136.9, 360.26 134.3" stroke="#868e96" stroke-width="0.5" fill="none"></path><path d="M0 0 C98.01 2.18, 197.78 0.43, 360 0 M0 0 C74.65 2.5, 148.76 2.47, 360 0 M360 0 C359.45 37.79, 359.29 78.32, 360 140 M360 0 C360.12 49.82, 360.67 98.1, 360 140 M360 140 C286.86 138.74, 214.53 137.51, 0 140 M360 140 C242.19 142.89, 124.88 141.86, 0 140 M0 140 C-0.6 90.18, 1 36.54, 0 0 M0 140 C-1.78 84.82, -1.16 30.71, 0 0" stroke="transparent" stroke-width="1" fill="none"></path></g><g transform="translate(2252.7783377047617 400.2543535803411) rotate(0 99.46666717529297 35)"><text x="99.46666717529297" y="24.528" font-family="Virgil, Segoe UI Emoji" font-size="28px" fill="#1e1e1e" text-anchor="middle" style="white-space: pre;" direction="ltr" dominant-baseline="alphabetic">AWS / GCP / </text><text x="99.46666717529297" y="59.528" font-family="Virgil, Segoe UI Emoji" font-size="28px" fill="#1e1e1e" text-anchor="middle" style="white-space: pre;" direction="ltr" dominant-baseline="alphabetic">Azure / K8S</text></g><g stroke-linecap="round" transform="translate(2576.4590399142344 370.2543535803411) rotate(0 120 69.99999999999994)"><path d="M0 0 C0 0, 0 0, 0 0 M0 0 C0 0, 0 0, 0 0 M-0.26 6.4 C1.08 4.15, 4.23 1.29, 4.99 0.36 M-0.26 6.4 C0.98 5.17, 2.2 3.34, 4.99 0.36 M0.13 12.04 C2.27 8.77, 7.62 4.7, 10.63 -0.03 M0.13 12.04 C2.5 8.1, 5.61 4.68, 10.63 -0.03 M-0.13 18.44 C1.6 16.06, 6.01 10.14, 15.62 0.33 M-0.13 18.44 C2.83 13.85, 7.48 10.09, 15.62 0.33 M0.27 24.08 C5.08 17.04, 11.58 10.21, 21.26 -0.07 M0.27 24.08 C8.29 15.3, 15.25 6.23, 21.26 -0.07 M0 30.48 C8.58 20.52, 16.25 8.58, 26.25 0.29 M0 30.48 C8.74 20.33, 18.32 10.32, 26.25 0.29 M-0.26 36.88 C11.44 24.13, 19.34 13.93, 31.89 -0.1 M-0.26 36.88 C8.56 25.18, 19.94 14.54, 31.89 -0.1 M0.14 42.52 C12.17 31.62, 19.73 17.37, 36.88 0.26 M0.14 42.52 C7.52 32.28, 17.54 22.79, 36.88 0.26 M-0.12 48.92 C9.85 33.77, 21.34 21.63, 42.52 -0.14 M-0.12 48.92 C15.62 33.32, 29.05 15.73, 42.52 -0.14 M0.27 54.56 C17.07 37.13, 31.1 16.3, 47.51 0.22 M0.27 54.56 C12.79 41.08, 24.79 25.79, 47.51 0.22 M0.01 60.96 C19.24 37.35, 40.03 15.27, 53.15 -0.17 M0.01 60.96 C20.67 36.01, 42.26 12.14, 53.15 -0.17 M-0.25 67.36 C13.95 50.51, 32.37 28.45, 58.14 0.19 M-0.25 67.36 C22.92 40.97, 47.37 14.6, 58.14 0.19 M0.14 73 C12.97 55.31, 27.37 38.74, 63.78 -0.21 M0.14 73 C23.35 47.16, 46.31 19.81, 63.78 -0.21 M-0.12 79.4 C24.75 53.36, 47.47 26.5, 68.77 0.15 M-0.12 79.4 C22.21 51.63, 45.61 25.89, 68.77 0.15 M0.28 85.04 C22.59 56.95, 46.61 29.04, 74.41 -0.24 M0.28 85.04 C17.8 65.77, 35.76 44.26, 74.41 -0.24 M0.01 91.44 C20.29 67.93, 42.72 43.04, 79.4 0.12 M0.01 91.44 C15.42 71.92, 34.02 52.4, 79.4 0.12 M-0.25 97.84 C29.14 62.38, 58.65 27.96, 85.04 -0.28 M-0.25 97.84 C30.63 62.19, 60.69 26.61, 85.04 -0.28 M0.15 103.48 C28.32 70.33, 59.71 32.51, 90.03 0.08 M0.15 103.48 C26.23 74.35, 52.64 43.42, 90.03 0.08 M-0.11 109.88 C27.95 76.69, 54.46 49.46, 95.67 -0.31 M-0.11 109.88 C19.12 87.98, 38.16 65.87, 95.67 -0.31 M0.28 115.52 C27.17 85.7, 51.37 52.35, 100.66 0.05 M0.28 115.52 C27.12 84.7, 55.61 53.15, 100.66 0.05 M0.02 121.92 C33.3 85.14, 66.21 45.03, 106.3 -0.34 M0.02 121.92 C39.18 77.23, 77.6 34.46, 106.3 -0.34 M-0.24 128.32 C34.27 91.25, 67.52 50.86, 111.29 0.02 M-0.24 128.32 C41.08 80.54, 81.11 33.01, 111.29 0.02 M0.15 133.96 C30.71 94.54, 64.22 58.53, 116.27 0.38 M0.15 133.96 C39.39 88.93, 79.41 43.19, 116.27 0.38 M-0.11 140.36 C47.64 86.33, 95.02 34.98, 121.92 -0.02 M-0.11 140.36 C28.57 108.36, 57.66 75.74, 121.92 -0.02 M5.53 139.96 C43.23 95.94, 82.42 51.62, 126.91 0.34 M5.53 139.96 C30.96 108.65, 58.56 77.7, 126.91 0.34 M10.52 140.32 C50.79 94.7, 93.11 47.27, 132.55 -0.05 M10.52 140.32 C41.3 103.87, 72.43 67.8, 132.55 -0.05 M16.16 139.93 C53.27 98.08, 89.05 55.98, 137.54 0.31 M16.16 139.93 C60.81 87.87, 104.97 36.25, 137.54 0.31 M21.15 140.29 C53.78 100.17, 85.73 66.61, 143.18 -0.09 M21.15 140.29 C51.33 105.69, 80.45 72.08, 143.18 -0.09 M26.79 139.89 C59.16 101.77, 94.13 63.58, 148.17 0.27 M26.79 139.89 C63.56 96.68, 99.91 54.82, 148.17 0.27 M31.78 140.25 C60.12 109.53, 85.38 77.23, 153.81 -0.12 M31.78 140.25 C70.91 95.88, 110.81 49.59, 153.81 -0.12 M37.42 139.86 C66.66 107.59, 94.03 75.57, 158.8 0.24 M37.42 139.86 C70.46 102.84, 103.51 64.65, 158.8 0.24 M42.41 140.22 C76.3 102.16, 110.07 60.62, 164.44 -0.16 M42.41 140.22 C78.84 98.35, 113.43 57.69, 164.44 -0.16 M48.05 139.82 C82.27 102.16, 114.45 64.83, 169.43 0.2 M48.05 139.82 C78.77 105.02, 108.67 71.19, 169.43 0.2 M53.04 140.18 C92.28 98.51, 127.17 54.07, 175.07 -0.19 M53.04 140.18 C80.25 106.61, 110.33 73.55, 175.07 -0.19 M58.68 139.79 C95.04 102.43, 127.76 62.1, 180.06 0.17 M58.68 139.79 C97.72 94.1, 135.41 49.5, 180.06 0.17 M63.67 140.15 C104.95 92.43, 149.94 40.85, 185.7 -0.23 M63.67 140.15 C98.84 99.88, 133.18 60.37, 185.7 -0.23 M69.31 139.76 C99.94 101.78, 132.85 64.32, 190.69 0.13 M69.31 139.76 C113.31 91.49, 153.31 44.35, 190.69 0.13 M74.3 140.12 C105.45 105.26, 135.81 70.48, 196.33 -0.26 M74.3 140.12 C112.61 97.87, 148.51 54.31, 196.33 -0.26 M79.29 140.48 C127.84 83.81, 173.46 30.02, 201.32 0.1 M79.29 140.48 C110.28 102.92, 142 66.08, 201.32 0.1 M84.93 140.08 C119.12 100.37, 155.75 58.96, 206.96 -0.3 M84.93 140.08 C130.53 86.37, 175.3 33.84, 206.96 -0.3 M89.92 140.44 C133.52 90.17, 176.18 38.18, 211.95 0.06 M89.92 140.44 C136.89 87.53, 181.81 34.41, 211.95 0.06 M95.56 140.05 C124.68 104.01, 155.62 68.02, 217.59 -0.33 M95.56 140.05 C135.1 96.11, 176.63 48.84, 217.59 -0.33 M100.55 140.41 C128.28 104.8, 157.87 73.02, 222.58 0.03 M100.55 140.41 C138.53 95.94, 176.47 53.34, 222.58 0.03 M106.19 140.01 C135.53 107.63, 162.88 77.18, 228.22 -0.36 M106.19 140.01 C129.76 111.01, 155.98 82.63, 228.22 -0.36 M111.18 140.37 C158.33 85.9, 207.17 26.72, 233.21 0 M111.18 140.37 C138.5 110.66, 163.67 80.13, 233.21 0 M116.82 139.98 C141.04 112.7, 167.2 82.77, 238.19 0.36 M116.82 139.98 C164.06 86.88, 212.48 32.92, 238.19 0.36 M121.81 140.34 C146.03 113.58, 170.61 86.23, 240.56 3.73 M121.81 140.34 C163.37 92.53, 206.39 45.07, 240.56 3.73 M127.45 139.94 C152.57 108.02, 181.18 74.87, 240.95 9.38 M127.45 139.94 C160.64 102.82, 192.03 65.01, 240.95 9.38 M132.44 140.3 C165.96 99.37, 200.23 61.03, 240.69 15.78 M132.44 140.3 C170.44 95.59, 211.75 49.65, 240.69 15.78 M138.08 139.91 C172.37 98.31, 207.4 57.34, 240.43 22.17 M138.08 139.91 C160.77 112.53, 183.74 86.65, 240.43 22.17 M143.07 140.27 C165.1 118.41, 183.14 94.43, 240.82 27.82 M143.07 140.27 C178.84 99.23, 215.07 58.93, 240.82 27.82 M148.71 139.87 C181.79 103.57, 210.35 68.56, 240.56 34.21 M148.71 139.87 C184.76 99.75, 221.11 58.49, 240.56 34.21 M153.7 140.23 C172.23 119.05, 191.27 97.14, 240.96 39.86 M153.7 140.23 C174.75 114.24, 196.61 89.31, 240.96 39.86 M159.34 139.84 C180.23 116.01, 198.99 94.19, 240.69 46.26 M159.34 139.84 C180.47 115.86, 203.65 89.84, 240.69 46.26 M164.33 140.2 C186.97 116.11, 206.35 90.33, 240.43 52.65 M164.33 140.2 C193.74 104.98, 224.49 70.15, 240.43 52.65 M169.97 139.8 C189.27 120.01, 207.48 98.23, 240.83 58.3 M169.97 139.8 C198.04 108.31, 226.84 76.21, 240.83 58.3 M174.96 140.16 C193.42 120.33, 211.38 98.91, 240.57 64.69 M174.96 140.16 C197.49 113.37, 221.13 88.54, 240.57 64.69 M180.6 139.77 C200.62 112.82, 223.94 89.57, 240.96 70.34 M180.6 139.77 C192.9 124.37, 206.27 109.2, 240.96 70.34 M185.59 140.13 C199.34 125.28, 210.95 114.18, 240.7 76.73 M185.59 140.13 C204.54 118.6, 223.07 97.27, 240.7 76.73 M191.23 139.74 C202.71 126.2, 213.31 118.03, 240.44 83.13 M191.23 139.74 C203.03 126.6, 213.53 113.08, 240.44 83.13 M196.22 140.1 C204.82 128.49, 217.73 115.19, 240.83 88.78 M196.22 140.1 C206.12 128.91, 214.62 119.32, 240.83 88.78 M201.21 140.46 C214.65 124.37, 229.72 107.32, 240.57 95.17 M201.21 140.46 C210.38 128.17, 221.49 118.36, 240.57 95.17 M206.85 140.06 C215.01 129.57, 225.82 116.59, 240.96 100.82 M206.85 140.06 C215.14 130.82, 221.43 122.7, 240.96 100.82 M211.84 140.42 C223.82 127.39, 232.32 116.1, 240.7 107.21 M211.84 140.42 C221.45 129.31, 230.5 119.7, 240.7 107.21 M217.48 140.03 C224.81 129.46, 233.08 119.68, 240.44 113.61 M217.48 140.03 C223.42 133.17, 229.15 125.99, 240.44 113.61 M222.47 140.39 C227.61 132.54, 234.33 128.75, 240.84 119.26 M222.47 140.39 C225.63 135.8, 229.01 131.03, 240.84 119.26 M228.11 139.99 C230.4 135.79, 236.56 130.82, 240.58 125.65 M228.11 139.99 C231.89 136.42, 234.93 132.03, 240.58 125.65 M233.1 140.35 C236.05 138.61, 238.2 134.87, 240.97 131.3 M233.1 140.35 C235.39 137.41, 238.13 134.43, 240.97 131.3 M238.74 139.96 C239.07 139.25, 239.8 139.18, 240.71 137.69 M238.74 139.96 C239.23 139.36, 239.5 138.83, 240.71 137.69 M0.11 140.1 C0.11 140.1, 0.11 140.1, 0.11 140.1 M0.11 140.1 C0.11 140.1, 0.11 140.1, 0.11 140.1 M5.76 139.7 C3.47 137.93, 1.07 135.67, -0.28 134.46 M5.76 139.7 C4.55 138.75, 3.42 137.72, -0.28 134.46 M12.16 139.97 C8.36 137.46, 7.72 134.01, 0.08 129.47 M12.16 139.97 C7.99 136.7, 5.52 134.08, 0.08 129.47 M18.55 140.23 C12.66 133.16, 8.26 129.06, -0.31 123.83 M18.55 140.23 C12.29 134.79, 8.23 130.93, -0.31 123.83 M24.2 139.83 C15.88 130.29, 6.18 122.42, 0.05 118.84 M24.2 139.83 C16.75 133.68, 8.13 126.02, 0.05 118.84 M30.59 140.09 C17.85 131.54, 6.39 118.13, -0.35 113.2 M30.59 140.09 C19.94 130.52, 9.82 121.25, -0.35 113.2 M36.24 139.7 C26.13 130.08, 15.77 120.31, 0.01 108.21 M36.24 139.7 C29.28 132.66, 21.06 126.25, 0.01 108.21 M42.63 139.96 C31.68 129.84, 23.35 121.88, 0.37 103.22 M42.63 139.96 C31.73 131.89, 22.62 122.44, 0.37 103.22 M49.03 140.22 C37.38 128.1, 25.21 118.77, -0.02 97.58 M49.03 140.22 C31.48 125.84, 14.92 111.47, -0.02 97.58 M54.68 139.83 C39.22 124.17, 21.32 110.01, 0.34 92.59 M54.68 139.83 C41.73 127.51, 26.85 116.09, 0.34 92.59 M61.07 140.09 C47.68 129.13, 34.07 115.67, -0.06 86.95 M61.07 140.09 C37.35 121.22, 14.84 100.31, -0.06 86.95 M66.72 139.7 C51.08 125.06, 34.8 111.31, 0.3 81.96 M66.72 139.7 C42.92 119.86, 19.84 97.9, 0.3 81.96 M73.11 139.96 C54.87 123.89, 37.76 108.71, -0.09 76.32 M73.11 139.96 C49.57 119.17, 23.82 97.15, -0.09 76.32 M79.51 140.22 C63.86 125.14, 42.19 107.83, 0.27 71.33 M79.51 140.22 C54.72 119.17, 28.83 95.48, 0.27 71.33 M85.16 139.82 C57.31 115.89, 29.77 88.66, -0.13 65.69 M85.16 139.82 C64.05 119.86, 42.55 102.22, -0.13 65.69 M91.55 140.09 C66.52 120.71, 44.54 100.65, 0.23 60.7 M91.55 140.09 C72.81 124.66, 53.11 108.23, 0.23 60.7 M97.2 139.69 C63.33 112.3, 31.32 83.26, -0.16 55.06 M97.2 139.69 C63.45 110.19, 28.33 79.44, -0.16 55.06 M103.59 139.95 C71.41 115.08, 43.67 88.36, 0.2 50.07 M103.59 139.95 C76.16 115.92, 47.68 90.46, 0.2 50.07 M109.99 140.21 C69.84 104.14, 28.22 69.12, -0.2 44.43 M109.99 140.21 C81.12 114.75, 50.6 90.29, -0.2 44.43 M115.63 139.82 C85.02 112.06, 50.21 82.85, 0.16 39.44 M115.63 139.82 C85.62 114.24, 56.03 87.74, 0.16 39.44 M122.03 140.08 C84.23 107.27, 45.84 71.86, -0.23 33.8 M122.03 140.08 C76.7 100.68, 30.81 62.95, -0.23 33.8 M127.68 139.69 C86.04 103.27, 47.08 67.76, 0.13 28.81 M127.68 139.69 C86.76 103.5, 44.39 66.31, 0.13 28.81 M134.07 139.95 C83.94 97.35, 37.33 53, -0.26 23.17 M134.07 139.95 C92.37 102.73, 51.21 67.86, -0.26 23.17 M140.47 140.21 C91.79 98.71, 41.58 54.49, 0.1 18.18 M140.47 140.21 C93.61 99.59, 49.09 60.44, 0.1 18.18 M146.11 139.81 C106.41 103.86, 68.16 71.24, -0.3 12.54 M146.11 139.81 C108.1 106.51, 70.47 73.99, -0.3 12.54 M152.51 140.08 C117.35 108.58, 84.76 80.57, 0.06 7.55 M152.51 140.08 C110.08 103.07, 67.54 66.08, 0.06 7.55 M158.16 139.68 C114.74 103.3, 72.41 65.72, -0.33 1.91 M158.16 139.68 C120.53 106.18, 82.36 72.3, -0.33 1.91 M164.55 139.94 C128.55 108.76, 93.89 79.11, 3.05 -0.45 M164.55 139.94 C112.26 94.1, 58.54 47.26, 3.05 -0.45 M170.95 140.2 C113.56 91.59, 57.6 40.96, 9.44 -0.19 M170.95 140.2 C132.84 107.73, 97.6 75.58, 9.44 -0.19 M176.59 139.81 C117.76 90.73, 60.57 39.98, 15.84 0.07 M176.59 139.81 C145.05 112.27, 112.31 84.51, 15.84 0.07 M182.99 140.07 C144.59 104.07, 106.59 70.12, 21.48 -0.33 M182.99 140.07 C145.16 107.74, 105.53 74.52, 21.48 -0.33 M188.63 139.68 C140.85 98.04, 93.61 56.4, 27.88 -0.06 M188.63 139.68 C136.02 94.84, 84.73 49.65, 27.88 -0.06 M195.03 139.94 C129.97 82.33, 67.49 28.6, 33.52 -0.46 M195.03 139.94 C158.99 108.49, 124.65 77.15, 33.52 -0.46 M201.43 140.2 C138.53 85.67, 74.24 30.37, 39.92 -0.2 M201.43 140.2 C150.12 98.12, 98.33 53.48, 39.92 -0.2 M207.07 139.8 C147.26 86.93, 89.19 34.78, 46.32 0.06 M207.07 139.8 C144.7 86.03, 81.3 31.26, 46.32 0.06 M213.47 140.07 C171.86 101.45, 131.3 65.98, 51.96 -0.33 M213.47 140.07 C165.96 98.72, 117.64 57.87, 51.96 -0.33 M219.87 140.33 C172.29 98.52, 123.18 56.15, 58.36 -0.07 M219.87 140.33 C172.17 100.14, 123.91 58.82, 58.36 -0.07 M225.51 139.93 C185.56 107.23, 147.46 72.21, 64 -0.46 M225.51 139.93 C168.51 88.27, 108.71 37.47, 64 -0.46 M231.91 140.19 C167.92 84.07, 102.99 27.15, 70.4 -0.2 M231.91 140.19 C179.32 94.85, 125.87 48.46, 70.4 -0.2 M237.55 139.8 C194.11 100.29, 148.49 60.77, 76.8 0.06 M237.55 139.8 C183.64 92.41, 130.32 45.45, 76.8 0.06 M240.18 136.78 C202.19 104.97, 162.91 67.94, 82.44 -0.34 M240.18 136.78 C202.2 105.18, 166.31 72.81, 82.44 -0.34 M240.54 131.79 C194.83 95.25, 148.51 55.64, 88.84 -0.07 M240.54 131.79 C206.81 102.5, 175.6 73.76, 88.84 -0.07 M240.14 126.15 C193.58 81.59, 142.69 40.32, 94.48 -0.47 M240.14 126.15 C183.12 77.52, 126.48 27.46, 94.48 -0.47 M240.5 121.16 C183.18 70.44, 131.25 22.32, 100.88 -0.21 M240.5 121.16 C201.27 86.13, 161.11 51.89, 100.88 -0.21 M240.11 115.52 C201.39 82.79, 162.98 46.15, 107.28 0.05 M240.11 115.52 C194.17 73.8, 149.3 34.65, 107.28 0.05 M240.47 110.53 C211.2 84.29, 178.99 57.56, 112.92 -0.34 M240.47 110.53 C206.85 82.51, 174.96 55.42, 112.92 -0.34 M240.07 104.89 C206.3 75.4, 172.42 46.01, 119.32 -0.08 M240.07 104.89 C207.29 77.27, 175.38 49.06, 119.32 -0.08 M240.43 99.9 C203.78 67.43, 169.49 37.86, 124.96 -0.47 M240.43 99.9 C205.78 68.59, 171.47 39.1, 124.96 -0.47 M240.04 94.26 C199.7 58.7, 158.75 22.39, 131.36 -0.21 M240.04 94.26 C208.56 66.98, 179.37 42.25, 131.36 -0.21 M240.4 89.27 C220.31 68.13, 195.69 49.11, 137.76 0.05 M240.4 89.27 C218.38 71.72, 198.48 54, 137.76 0.05 M240 83.63 C204.09 50.41, 163.84 20.55, 143.4 -0.35 M240 83.63 C208.51 55.17, 175.43 26.26, 143.4 -0.35 M240.36 78.64 C220.67 64.33, 201.3 45.22, 149.8 -0.08 M240.36 78.64 C217.74 57.31, 194.93 37.94, 149.8 -0.08 M240.72 73.66 C217.47 51.5, 190.53 31.84, 155.44 -0.48 M240.72 73.66 C210.33 45.61, 177.66 18.66, 155.44 -0.48 M240.33 68.01 C219.13 51.96, 197.15 32.36, 161.84 -0.22 M240.33 68.01 C217.12 47.29, 192.33 26.67, 161.84 -0.22 M240.69 63.03 C217.29 43.5, 195.29 23.03, 168.24 0.04 M240.69 63.03 C216.97 40.73, 192.08 19.63, 168.24 0.04 M240.3 57.38 C215.21 35.1, 190.8 14.82, 173.88 -0.35 M240.3 57.38 C218.35 37.86, 194.58 18.66, 173.88 -0.35 M240.66 52.4 C223.24 37.41, 203.97 18.79, 180.28 -0.09 M240.66 52.4 C221.24 36.33, 200.57 17.34, 180.28 -0.09 M240.26 46.75 C227.8 33.24, 210.93 22.11, 185.92 -0.48 M240.26 46.75 C223.74 31.4, 205.27 16.96, 185.92 -0.48 M240.62 41.77 C223.26 25.96, 204.78 8.38, 192.32 -0.22 M240.62 41.77 C225.31 30.25, 210.48 17.36, 192.32 -0.22 M240.23 36.12 C227.41 22.76, 213.56 15.5, 198.72 0.04 M240.23 36.12 C228.33 24.6, 215.7 13.64, 198.72 0.04 M240.59 31.14 C232.05 24.91, 224.01 18.71, 204.36 -0.36 M240.59 31.14 C226.98 20.19, 215.28 9.65, 204.36 -0.36 M240.19 25.49 C227.65 15.38, 215.82 3.52, 210.76 -0.09 M240.19 25.49 C230.12 15.97, 218.96 8.09, 210.76 -0.09 M240.55 20.51 C229.89 12.51, 224.23 4.68, 216.4 -0.49 M240.55 20.51 C235.76 16.56, 229.78 11.79, 216.4 -0.49 M240.16 14.86 C234.96 11.9, 232.87 7.27, 222.8 -0.23 M240.16 14.86 C233.02 7.9, 225.71 3.57, 222.8 -0.23 M240.52 9.88 C236.82 8.13, 236.48 4.59, 229.2 0.03 M240.52 9.88 C235.54 6.03, 232.08 2.5, 229.2 0.03 M240.12 4.23 C239.08 2.47, 237.18 1.71, 234.84 -0.36 M240.12 4.23 C238.17 2.25, 235.92 0.27, 234.84 -0.36" stroke="#eebefa" stroke-width="0.5" fill="none"></path><path d="M0 0 C85.54 1.54, 172.72 1.64, 240 0 M0 0 C91.45 -1.87, 183.39 -1.51, 240 0 M240 0 C240.97 31.95, 238.6 59.37, 240 140 M240 0 C238.6 46.89, 238.84 95.52, 240 140 M240 140 C160.77 137.32, 82.3 138.11, 0 140 M240 140 C144.9 138.36, 49.39 138.22, 0 140 M0 140 C1.49 90, -2.15 35.41, 0 0 M0 140 C0.26 110.3, -0.12 80.95, 0 0" stroke="transparent" stroke-width="1" fill="none"></path></g><g transform="translate(2591.165071713551 387.75435358034105) rotate(0 105.2939682006836 52.5)"><text x="105.2939682006836" y="24.528" font-family="Virgil, Segoe UI Emoji" font-size="28px" fill="#1e1e1e" text-anchor="middle" style="white-space: pre;" direction="ltr" dominant-baseline="alphabetic">GitHub / Self-</text><text x="105.2939682006836" y="59.528" font-family="Virgil, Segoe UI Emoji" font-size="28px" fill="#1e1e1e" text-anchor="middle" style="white-space: pre;" direction="ltr" dominant-baseline="alphabetic">hosted / local </text><text x="105.2939682006836" y="94.52799999999999" font-family="Virgil, Segoe UI Emoji" font-size="28px" fill="#1e1e1e" text-anchor="middle" style="white-space: pre;" direction="ltr" dominant-baseline="alphabetic">runners </text></g><g transform="translate(2456.4590399142344 170.2543535803411) rotate(0 206.01666259765625 69.99999999999997)"><text x="0" y="19.622399999999992" font-family="Virgil, Segoe UI Emoji" font-size="22.399999999999988px" fill="#868e96" text-anchor="start" style="white-space: pre;" direction="ltr" dominant-baseline="alphabetic">Workflows can be executed on</text><text x="0" y="47.62239999999998" font-family="Virgil, Segoe UI Emoji" font-size="22.399999999999988px" fill="#868e96" text-anchor="start" style="white-space: pre;" direction="ltr" dominant-baseline="alphabetic">GitHub, self-hosted or local runners</text><text x="0" y="75.62239999999997" font-family="Virgil, Segoe UI Emoji" font-size="22.399999999999988px" fill="#868e96" text-anchor="start" style="white-space: pre;" direction="ltr" dominant-baseline="alphabetic">and applied to Warestack's </text><text x="0" y="103.62239999999994" font-family="Virgil, Segoe UI Emoji" font-size="22.399999999999988px" fill="#868e96" text-anchor="start" style="white-space: pre;" direction="ltr" dominant-baseline="alphabetic">ready-to-use or user's self-managed</text><text x="0" y="131.62239999999994" font-family="Virgil, Segoe UI Emoji" font-size="22.399999999999988px" fill="#868e96" text-anchor="start" style="white-space: pre;" direction="ltr" dominant-baseline="alphabetic">resources on multiple Cloud Providers</text></g></svg>