<svg width="633" height="175" viewBox="0 0 633 175" fill="none" xmlns="http://www.w3.org/2000/svg">
<path d="M104.126 79.7656L61.0007 104.891L17.8757 79.7656C17.0246 79.3574 16.0509 79.2851 15.1489 79.5633C14.247 79.8414 13.483 80.4494 13.0096 81.266C12.5363 82.0826 12.3882 83.0477 12.5951 83.9687C12.802 84.8896 13.3485 85.6986 14.1257 86.2343L59.1257 112.484C59.6925 112.823 60.3404 113.002 61.0007 113.002C61.6609 113.002 62.3088 112.823 62.8757 112.484L107.876 86.2343C108.342 86.0107 108.757 85.693 109.095 85.3013C109.432 84.9096 109.685 84.4523 109.837 83.9581C109.99 83.464 110.038 82.9436 109.98 82.4298C109.922 81.916 109.758 81.4198 109.498 80.9724C109.239 80.525 108.89 80.1361 108.473 79.8301C108.056 79.5241 107.58 79.3077 107.076 79.1943C106.571 79.081 106.049 79.0732 105.541 79.1715C105.033 79.2698 104.551 79.4721 104.126 79.7656Z" fill="#020202"/>
<path d="M104.126 57.2656L61.0007 82.3906L17.8757 57.2656C17.0246 56.8574 16.0509 56.7851 15.1489 57.0633C14.247 57.3414 13.483 57.9494 13.0096 58.766C12.5363 59.5826 12.3882 60.5477 12.5951 61.4687C12.802 62.3896 13.3485 63.1986 14.1257 63.7343L59.1257 89.9843C59.6925 90.3229 60.3404 90.5017 61.0007 90.5017C61.6609 90.5017 62.3088 90.3229 62.8757 89.9843L107.876 63.7343C108.342 63.5107 108.757 63.193 109.095 62.8013C109.432 62.4096 109.685 61.9523 109.837 61.4581C109.99 60.964 110.038 60.4436 109.98 59.9298C109.922 59.416 109.758 58.9198 109.498 58.4724C109.239 58.025 108.89 57.6361 108.473 57.3301C108.056 57.0241 107.58 56.8077 107.076 56.6943C106.571 56.581 106.049 56.5732 105.541 56.6715C105.033 56.7699 104.551 56.9721 104.126 57.2656Z" fill="#020202"/>
<path d="M14.1247 41.2345L59.1248 67.4844C59.6916 67.823 60.3395 68.0018 60.9998 68.0018C61.66 68.0018 62.3079 67.823 62.8748 67.4844L107.875 41.2345C108.439 40.9036 108.906 40.431 109.231 39.8637C109.556 39.2963 109.727 38.6539 109.727 38.0001C109.727 37.3463 109.556 36.7038 109.231 36.1365C108.906 35.5691 108.439 35.0966 107.875 34.7657L62.8748 8.51571C62.3097 8.17217 61.6611 7.99048 60.9998 7.99048C60.3384 7.99048 59.6898 8.17217 59.1248 8.51571L14.1247 34.7657C13.5608 35.0966 13.0932 35.5691 12.7683 36.1365C12.4434 36.7038 12.2725 37.3463 12.2725 38.0001C12.2725 38.6539 12.4434 39.2963 12.7683 39.8637C13.0932 40.431 13.5608 40.9036 14.1247 41.2345Z" fill="url(#paint0_linear_6_6)"/>
<path d="M155.899 96.5L135.373 23.7727H149.542L162.646 77.2173H163.32L177.312 23.7727H190.203L204.23 77.2528H204.869L217.972 23.7727H232.142L211.616 96.5H198.619L184.059 45.4702H183.491L168.896 96.5H155.899ZM248.838 97.6009C245.382 97.6009 242.269 96.9853 239.499 95.7543C236.753 94.4995 234.575 92.6529 232.965 90.2145C231.378 87.776 230.585 84.7694 230.585 81.1946C230.585 78.117 231.154 75.572 232.29 73.5597C233.426 71.5473 234.977 69.9375 236.942 68.7301C238.907 67.5227 241.12 66.6113 243.583 65.9957C246.068 65.3565 248.637 64.8949 251.289 64.6108C254.485 64.2794 257.077 63.9834 259.066 63.723C261.054 63.4389 262.498 63.0128 263.398 62.4446C264.321 61.8527 264.783 60.9413 264.783 59.7102V59.4972C264.783 56.822 263.99 54.7505 262.404 53.2827C260.817 51.8149 258.533 51.081 255.55 51.081C252.401 51.081 249.904 51.7675 248.057 53.1406C246.234 54.5137 245.003 56.1354 244.364 58.0057L232.361 56.3011C233.308 52.9867 234.87 50.2169 237.048 47.9915C239.227 45.7424 241.89 44.0616 245.039 42.9489C248.187 41.8125 251.667 41.2443 255.479 41.2443C258.107 41.2443 260.723 41.5521 263.327 42.1676C265.931 42.7831 268.31 43.8011 270.465 45.2216C272.619 46.6184 274.347 48.5241 275.649 50.9389C276.975 53.3537 277.638 56.3722 277.638 59.9943V96.5H265.28V89.0071H264.854C264.073 90.5223 262.972 91.9427 261.551 93.2685C260.155 94.5705 258.391 95.6241 256.26 96.429C254.153 97.2102 251.679 97.6009 248.838 97.6009ZM252.176 88.1548C254.757 88.1548 256.994 87.6458 258.888 86.6278C260.782 85.5862 262.238 84.2131 263.256 82.5085C264.298 80.804 264.818 78.9455 264.818 76.9332V70.5057C264.416 70.8371 263.729 71.1449 262.759 71.429C261.812 71.7131 260.746 71.9616 259.563 72.1747C258.379 72.3878 257.207 72.5772 256.047 72.7429C254.887 72.9086 253.881 73.0507 253.029 73.169C251.111 73.4294 249.395 73.8556 247.879 74.4474C246.364 75.0393 245.169 75.8679 244.293 76.9332C243.417 77.9749 242.979 79.3243 242.979 80.9815C242.979 83.349 243.843 85.1364 245.571 86.3438C247.299 87.5511 249.501 88.1548 252.176 88.1548ZM288.564 96.5V41.9545H301.029V51.0455H301.597C302.591 47.8968 304.296 45.4702 306.71 43.7656C309.149 42.0374 311.931 41.1733 315.056 41.1733C315.766 41.1733 316.559 41.2088 317.435 41.2798C318.334 41.3272 319.08 41.41 319.672 41.5284V53.3537C319.128 53.1643 318.263 52.9986 317.08 52.8565C315.92 52.6908 314.795 52.608 313.706 52.608C311.362 52.608 309.255 53.1169 307.385 54.1349C305.539 55.1293 304.083 56.5142 303.017 58.2898C301.952 60.0653 301.419 62.1132 301.419 64.4332V96.5H288.564ZM348.114 97.5653C342.645 97.5653 337.922 96.429 333.945 94.1562C329.992 91.8598 326.949 88.6165 324.819 84.4261C322.688 80.2121 321.623 75.2524 321.623 69.5469C321.623 63.9361 322.688 59.0118 324.819 54.7741C326.973 50.5128 329.98 47.1984 333.839 44.831C337.698 42.4399 342.231 41.2443 347.439 41.2443C350.801 41.2443 353.974 41.7888 356.956 42.8778C359.963 43.9432 362.615 45.6004 364.911 47.8494C367.231 50.0985 369.054 52.9631 370.38 56.4432C371.706 59.8996 372.368 64.0189 372.368 68.8011V72.7429H327.66V64.0781H360.046C360.022 61.616 359.49 59.4261 358.448 57.5085C357.406 55.5672 355.95 54.0402 354.08 52.9276C352.233 51.8149 350.079 51.2585 347.617 51.2585C344.989 51.2585 342.681 51.8977 340.692 53.1761C338.704 54.4309 337.153 56.0881 336.04 58.1477C334.951 60.1837 334.395 62.4209 334.371 64.8594V72.4233C334.371 75.5956 334.951 78.3182 336.111 80.5909C337.271 82.84 338.893 84.5682 340.976 85.7756C343.06 86.9593 345.498 87.5511 348.292 87.5511C350.162 87.5511 351.855 87.2907 353.37 86.7699C354.885 86.2254 356.199 85.4323 357.312 84.3906C358.424 83.349 359.265 82.0587 359.833 80.5199L371.836 81.8693C371.078 85.0417 369.634 87.8116 367.503 90.179C365.396 92.5227 362.698 94.3456 359.407 95.6477C356.116 96.9261 352.352 97.5653 348.114 97.5653ZM424.355 56.3722L412.636 57.6506C412.304 56.4669 411.724 55.3542 410.896 54.3125C410.091 53.2708 409.002 52.4304 407.629 51.7912C406.256 51.152 404.575 50.8324 402.586 50.8324C399.911 50.8324 397.662 51.4124 395.839 52.5724C394.04 53.7325 393.152 55.2358 393.176 57.0824C393.152 58.6686 393.732 59.9588 394.916 60.9531C396.123 61.9474 398.112 62.7642 400.882 63.4034L410.186 65.392C415.347 66.5047 419.182 68.2685 421.691 70.6832C424.224 73.098 425.503 76.2585 425.526 80.1648C425.503 83.5975 424.497 86.6278 422.508 89.2557C420.543 91.8598 417.809 93.8958 414.305 95.3636C410.801 96.8314 406.776 97.5653 402.231 97.5653C395.555 97.5653 390.181 96.1686 386.109 93.375C382.037 90.5578 379.61 86.6397 378.829 81.6207L391.365 80.4134C391.933 82.8755 393.14 84.7339 394.987 85.9886C396.833 87.2434 399.236 87.8707 402.195 87.8707C405.249 87.8707 407.7 87.2434 409.546 85.9886C411.417 84.7339 412.352 83.1832 412.352 81.3366C412.352 79.7741 411.748 78.4839 410.541 77.4659C409.357 76.4479 407.51 75.6667 405.001 75.1222L395.697 73.169C390.465 72.08 386.594 70.2453 384.085 67.6648C381.575 65.0606 380.332 61.7699 380.356 57.7926C380.332 54.4309 381.244 51.5189 383.09 49.0568C384.961 46.571 387.553 44.6534 390.867 43.304C394.205 41.9309 398.052 41.2443 402.409 41.2443C408.801 41.2443 413.831 42.6056 417.501 45.3281C421.194 48.0507 423.479 51.732 424.355 56.3722ZM461.364 41.9545V51.8977H430.007V41.9545H461.364ZM437.749 28.8864H450.604V80.0938C450.604 81.822 450.864 83.1477 451.385 84.071C451.93 84.9706 452.64 85.5862 453.516 85.9176C454.392 86.2491 455.362 86.4148 456.428 86.4148C457.233 86.4148 457.967 86.3556 458.629 86.2372C459.316 86.1188 459.837 86.0123 460.192 85.9176L462.358 95.9673C461.672 96.2041 460.689 96.4645 459.411 96.7486C458.156 97.0327 456.617 97.1984 454.794 97.2457C451.575 97.3404 448.674 96.8551 446.094 95.7898C443.513 94.7008 441.466 93.0199 439.95 90.7472C438.459 88.4744 437.725 85.6335 437.749 82.2244V28.8864ZM485.811 97.6009C482.354 97.6009 479.241 96.9853 476.471 95.7543C473.725 94.4995 471.547 92.6529 469.937 90.2145C468.351 87.776 467.558 84.7694 467.558 81.1946C467.558 78.117 468.126 75.572 469.263 73.5597C470.399 71.5473 471.95 69.9375 473.915 68.7301C475.88 67.5227 478.093 66.6113 480.555 65.9957C483.041 65.3565 485.61 64.8949 488.261 64.6108C491.457 64.2794 494.05 63.9834 496.038 63.723C498.027 63.4389 499.471 63.0128 500.371 62.4446C501.294 61.8527 501.756 60.9413 501.756 59.7102V59.4972C501.756 56.822 500.962 54.7505 499.376 53.2827C497.79 51.8149 495.506 51.081 492.523 51.081C489.374 51.081 486.876 51.7675 485.03 53.1406C483.207 54.5137 481.976 56.1354 481.336 58.0057L469.334 56.3011C470.281 52.9867 471.843 50.2169 474.021 47.9915C476.199 45.7424 478.863 44.0616 482.011 42.9489C485.16 41.8125 488.64 41.2443 492.452 41.2443C495.079 41.2443 497.695 41.5521 500.3 42.1676C502.904 42.7831 505.283 43.8011 507.437 45.2216C509.592 46.6184 511.32 48.5241 512.622 50.9389C513.948 53.3537 514.611 56.3722 514.611 59.9943V96.5H502.253V89.0071H501.827C501.045 90.5223 499.944 91.9427 498.524 93.2685C497.127 94.5705 495.363 95.6241 493.233 96.429C491.126 97.2102 488.652 97.6009 485.811 97.6009ZM489.149 88.1548C491.729 88.1548 493.967 87.6458 495.861 86.6278C497.755 85.5862 499.211 84.2131 500.229 82.5085C501.27 80.804 501.791 78.9455 501.791 76.9332V70.5057C501.389 70.8371 500.702 71.1449 499.731 71.429C498.784 71.7131 497.719 71.9616 496.535 72.1747C495.352 72.3878 494.18 72.5772 493.02 72.7429C491.86 72.9086 490.854 73.0507 490.001 73.169C488.084 73.4294 486.367 73.8556 484.852 74.4474C483.337 75.0393 482.141 75.8679 481.265 76.9332C480.39 77.9749 479.952 79.3243 479.952 80.9815C479.952 83.349 480.816 85.1364 482.544 86.3438C484.272 87.5511 486.474 88.1548 489.149 88.1548ZM549.329 97.5653C543.884 97.5653 539.209 96.3698 535.302 93.9787C531.42 91.5876 528.425 88.285 526.318 84.071C524.235 79.8333 523.193 74.9564 523.193 69.4403C523.193 63.9006 524.258 59.0118 526.389 54.7741C528.52 50.5128 531.526 47.1984 535.409 44.831C539.315 42.4399 543.932 41.2443 549.258 41.2443C553.685 41.2443 557.604 42.0611 561.013 43.6946C564.445 45.3045 567.18 47.589 569.216 50.5483C571.252 53.4839 572.412 56.9167 572.696 60.8466H560.409C559.912 58.2187 558.728 56.0289 556.858 54.277C555.011 52.5014 552.537 51.6136 549.436 51.6136C546.808 51.6136 544.5 52.3239 542.511 53.7443C540.523 55.1411 538.972 57.1534 537.859 59.7812C536.77 62.4091 536.226 65.5578 536.226 69.2273C536.226 72.9441 536.77 76.1402 537.859 78.8153C538.948 81.4669 540.475 83.5147 542.44 84.9588C544.429 86.3793 546.761 87.0895 549.436 87.0895C551.33 87.0895 553.023 86.7344 554.514 86.0241C556.029 85.2902 557.296 84.2367 558.314 82.8636C559.332 81.4905 560.03 79.8215 560.409 77.8565H572.696C572.388 81.7154 571.252 85.1364 569.287 88.1193C567.322 91.0786 564.647 93.3987 561.261 95.0795C557.876 96.7367 553.898 97.5653 549.329 97.5653ZM592.97 79.3835L592.935 63.8651H594.994L614.597 41.9545H629.618L605.506 68.8011H602.843L592.97 79.3835ZM581.252 96.5V23.7727H594.107V96.5H581.252ZM615.485 96.5L597.729 71.6776L606.394 62.6222L630.861 96.5H615.485Z" fill="url(#paint1_linear_6_6)"/>
<path d="M5.0945 168.5H1.57888L7.9798 150.318H12.0459L18.4557 168.5H14.94L10.0839 154.047H9.94181L5.0945 168.5ZM5.20992 161.371H14.798V164.017H5.20992V161.371ZM23.6441 150.318V168.5H20.3505V150.318H23.6441ZM34.834 159.604V162.25H26.6487V159.604H34.834ZM42.7746 168.74C41.7034 168.74 40.7446 168.464 39.8982 167.914C39.0519 167.364 38.3831 166.565 37.8918 165.517C37.4006 164.469 37.155 163.197 37.155 161.7C37.155 160.184 37.4035 158.906 37.9007 157.864C38.4038 156.817 39.0815 156.027 39.9337 155.494C40.786 154.955 41.7359 154.686 42.7835 154.686C43.5825 154.686 44.2395 154.822 44.7544 155.094C45.2693 155.361 45.6777 155.683 45.9795 156.062C46.2814 156.435 46.5152 156.787 46.6809 157.119H46.8141V150.318H50.0367V168.5H46.8762V166.352H46.6809C46.5152 166.683 46.2755 167.035 45.9618 167.408C45.6481 167.775 45.2338 168.089 44.7189 168.349C44.204 168.609 43.5559 168.74 42.7746 168.74ZM43.6713 166.103C44.3519 166.103 44.932 165.92 45.4114 165.553C45.8908 165.18 46.2547 164.662 46.5033 163.999C46.7519 163.336 46.8762 162.564 46.8762 161.682C46.8762 160.8 46.7519 160.033 46.5033 159.382C46.2607 158.731 45.8996 158.225 45.4202 157.864C44.9467 157.503 44.3638 157.323 43.6713 157.323C42.9552 157.323 42.3574 157.509 41.878 157.882C41.3986 158.255 41.0375 158.77 40.7949 159.427C40.5522 160.084 40.4309 160.835 40.4309 161.682C40.4309 162.534 40.5522 163.295 40.7949 163.963C41.0435 164.626 41.4074 165.15 41.8869 165.535C42.3722 165.914 42.967 166.103 43.6713 166.103ZM52.9613 168.5V154.864H56.0775V157.136H56.2195C56.4681 156.349 56.8942 155.743 57.4979 155.316C58.1075 154.884 58.803 154.668 59.5842 154.668C59.7618 154.668 59.96 154.677 60.179 154.695C60.4039 154.707 60.5904 154.728 60.7383 154.757V157.713C60.6022 157.666 60.3862 157.625 60.0902 157.589C59.8002 157.548 59.5191 157.527 59.2468 157.527C58.6609 157.527 58.1342 157.654 57.6666 157.909C57.2049 158.157 56.841 158.504 56.5746 158.947C56.3083 159.391 56.1751 159.903 56.1751 160.483V168.5H52.9613ZM62.3734 168.5V154.864H65.5872V168.5H62.3734ZM63.9892 152.928C63.4802 152.928 63.0422 152.76 62.6753 152.422C62.3083 152.079 62.1249 151.668 62.1249 151.188C62.1249 150.703 62.3083 150.292 62.6753 149.954C63.0422 149.611 63.4802 149.439 63.9892 149.439C64.5041 149.439 64.9421 149.611 65.3031 149.954C65.6701 150.292 65.8536 150.703 65.8536 151.188C65.8536 151.668 65.6701 152.079 65.3031 152.422C64.9421 152.76 64.5041 152.928 63.9892 152.928ZM80.5724 154.864L75.7162 168.5H72.1651L67.3089 154.864H70.7358L73.8696 164.993H74.0117L77.1544 154.864H80.5724ZM87.8694 168.766C86.5022 168.766 85.3214 168.482 84.3271 167.914C83.3387 167.34 82.5782 166.529 82.0455 165.482C81.5128 164.428 81.2465 163.188 81.2465 161.762C81.2465 160.359 81.5128 159.128 82.0455 158.069C82.5841 157.003 83.3357 156.175 84.3005 155.583C85.2652 154.985 86.3986 154.686 87.7007 154.686C88.5411 154.686 89.3342 154.822 90.0799 155.094C90.8316 155.361 91.4945 155.775 92.0686 156.337C92.6486 156.9 93.1043 157.616 93.4358 158.486C93.7672 159.35 93.9329 160.38 93.9329 161.575V162.561H82.7557V160.395H90.8523C90.8464 159.779 90.7132 159.232 90.4528 158.752C90.1924 158.267 89.8284 157.885 89.3608 157.607C88.8992 157.329 88.3606 157.19 87.7451 157.19C87.0881 157.19 86.5111 157.349 86.0139 157.669C85.5167 157.983 85.1291 158.397 84.8509 158.912C84.5786 159.421 84.4396 159.98 84.4336 160.59V162.481C84.4336 163.274 84.5786 163.955 84.8687 164.523C85.1587 165.085 85.5641 165.517 86.0849 165.819C86.6057 166.115 87.2154 166.263 87.9138 166.263C88.3813 166.263 88.8045 166.198 89.1833 166.067C89.5621 165.931 89.8906 165.733 90.1687 165.473C90.4469 165.212 90.657 164.89 90.7991 164.505L93.7998 164.842C93.6104 165.635 93.2493 166.328 92.7167 166.92C92.1899 167.506 91.5152 167.961 90.6925 168.287C89.8698 168.607 88.9288 168.766 87.8694 168.766ZM99.3655 160.51V168.5H96.1518V154.864H99.2235V157.181H99.3833C99.697 156.417 100.197 155.811 100.884 155.361C101.576 154.911 102.431 154.686 103.449 154.686C104.39 154.686 105.21 154.887 105.909 155.29C106.613 155.692 107.157 156.275 107.542 157.039C107.933 157.802 108.125 158.728 108.119 159.817V168.5H104.905V160.315C104.905 159.403 104.669 158.69 104.195 158.175C103.728 157.66 103.079 157.403 102.251 157.403C101.689 157.403 101.188 157.527 100.75 157.776C100.318 158.018 99.9781 158.37 99.7295 158.832C99.4869 159.294 99.3655 159.853 99.3655 160.51ZM116.587 173.614V154.864H119.748V157.119H119.934C120.1 156.787 120.334 156.435 120.636 156.062C120.937 155.683 121.346 155.361 121.861 155.094C122.376 154.822 123.033 154.686 123.832 154.686C124.885 154.686 125.835 154.955 126.681 155.494C127.534 156.027 128.208 156.817 128.706 157.864C129.209 158.906 129.46 160.184 129.46 161.7C129.46 163.197 129.215 164.469 128.723 165.517C128.232 166.565 127.563 167.364 126.717 167.914C125.871 168.464 124.912 168.74 123.841 168.74C123.059 168.74 122.411 168.609 121.896 168.349C121.381 168.089 120.967 167.775 120.653 167.408C120.346 167.035 120.106 166.683 119.934 166.352H119.801V173.614H116.587ZM119.739 161.682C119.739 162.564 119.863 163.336 120.112 163.999C120.366 164.662 120.73 165.18 121.204 165.553C121.683 165.92 122.263 166.103 122.944 166.103C123.654 166.103 124.249 165.914 124.728 165.535C125.208 165.15 125.569 164.626 125.811 163.963C126.06 163.295 126.184 162.534 126.184 161.682C126.184 160.835 126.063 160.084 125.82 159.427C125.578 158.77 125.217 158.255 124.737 157.882C124.258 157.509 123.66 157.323 122.944 157.323C122.257 157.323 121.674 157.503 121.195 157.864C120.716 158.225 120.352 158.731 120.103 159.382C119.86 160.033 119.739 160.8 119.739 161.682ZM134.926 150.318V168.5H131.712V150.318H134.926ZM141.655 168.775C140.791 168.775 140.012 168.621 139.32 168.314C138.633 168 138.089 167.538 137.686 166.929C137.29 166.319 137.092 165.567 137.092 164.674C137.092 163.904 137.234 163.268 137.518 162.765C137.802 162.262 138.19 161.859 138.681 161.558C139.172 161.256 139.725 161.028 140.341 160.874C140.962 160.714 141.605 160.599 142.267 160.528C143.066 160.445 143.715 160.371 144.212 160.306C144.709 160.235 145.07 160.128 145.295 159.986C145.526 159.838 145.641 159.61 145.641 159.303V159.249C145.641 158.58 145.443 158.063 145.046 157.696C144.65 157.329 144.079 157.145 143.333 157.145C142.546 157.145 141.921 157.317 141.46 157.66C141.004 158.003 140.696 158.409 140.536 158.876L137.536 158.45C137.772 157.622 138.163 156.929 138.707 156.373C139.252 155.811 139.918 155.39 140.705 155.112C141.492 154.828 142.362 154.686 143.315 154.686C143.972 154.686 144.626 154.763 145.277 154.917C145.928 155.071 146.523 155.325 147.061 155.68C147.6 156.03 148.032 156.506 148.358 157.11C148.689 157.713 148.855 158.468 148.855 159.374V168.5H145.765V166.627H145.659C145.463 167.006 145.188 167.361 144.833 167.692C144.484 168.018 144.043 168.281 143.51 168.482C142.984 168.678 142.365 168.775 141.655 168.775ZM142.489 166.414C143.135 166.414 143.694 166.286 144.167 166.032C144.641 165.772 145.005 165.428 145.259 165.002C145.52 164.576 145.65 164.111 145.65 163.608V162.001C145.549 162.084 145.378 162.161 145.135 162.232C144.898 162.303 144.632 162.365 144.336 162.419C144.04 162.472 143.747 162.519 143.457 162.561C143.167 162.602 142.916 162.638 142.702 162.667C142.223 162.732 141.794 162.839 141.415 162.987C141.036 163.135 140.737 163.342 140.519 163.608C140.3 163.869 140.19 164.206 140.19 164.62C140.19 165.212 140.406 165.659 140.838 165.961C141.27 166.263 141.821 166.414 142.489 166.414ZM158.396 154.864V157.349H150.557V154.864H158.396ZM152.492 151.597H155.706V164.398C155.706 164.83 155.771 165.162 155.901 165.393C156.037 165.618 156.215 165.772 156.434 165.854C156.653 165.937 156.895 165.979 157.162 165.979C157.363 165.979 157.546 165.964 157.712 165.934C157.884 165.905 158.014 165.878 158.103 165.854L158.644 168.367C158.473 168.426 158.227 168.491 157.907 168.562C157.594 168.633 157.209 168.675 156.753 168.686C155.948 168.71 155.223 168.589 154.578 168.322C153.933 168.05 153.421 167.63 153.042 167.062C152.669 166.494 152.486 165.783 152.492 164.931V151.597ZM167.49 154.864V157.349H159.429V154.864H167.49ZM161.445 168.5V153.576C161.445 152.659 161.634 151.895 162.013 151.286C162.397 150.676 162.912 150.221 163.557 149.919C164.203 149.617 164.919 149.466 165.706 149.466C166.262 149.466 166.756 149.51 167.189 149.599C167.621 149.688 167.94 149.768 168.147 149.839L167.508 152.325C167.372 152.283 167.2 152.242 166.993 152.2C166.786 152.153 166.555 152.129 166.301 152.129C165.703 152.129 165.28 152.274 165.031 152.564C164.789 152.848 164.667 153.257 164.667 153.789V168.5H161.445ZM174.943 168.766C173.611 168.766 172.457 168.473 171.48 167.887C170.504 167.301 169.746 166.482 169.208 165.428C168.675 164.375 168.409 163.144 168.409 161.735C168.409 160.326 168.675 159.092 169.208 158.033C169.746 156.974 170.504 156.151 171.48 155.565C172.457 154.979 173.611 154.686 174.943 154.686C176.274 154.686 177.428 154.979 178.405 155.565C179.382 156.151 180.136 156.974 180.669 158.033C181.207 159.092 181.477 160.326 181.477 161.735C181.477 163.144 181.207 164.375 180.669 165.428C180.136 166.482 179.382 167.301 178.405 167.887C177.428 168.473 176.274 168.766 174.943 168.766ZM174.96 166.192C175.683 166.192 176.286 165.993 176.772 165.597C177.257 165.194 177.618 164.656 177.855 163.981C178.097 163.306 178.219 162.555 178.219 161.726C178.219 160.892 178.097 160.137 177.855 159.462C177.618 158.782 177.257 158.24 176.772 157.838C176.286 157.435 175.683 157.234 174.96 157.234C174.221 157.234 173.605 157.435 173.114 157.838C172.629 158.24 172.265 158.782 172.022 159.462C171.785 160.137 171.667 160.892 171.667 161.726C171.667 162.555 171.785 163.306 172.022 163.981C172.265 164.656 172.629 165.194 173.114 165.597C173.605 165.993 174.221 166.192 174.96 166.192ZM183.705 168.5V154.864H186.821V157.136H186.963C187.211 156.349 187.637 155.743 188.241 155.316C188.851 154.884 189.546 154.668 190.327 154.668C190.505 154.668 190.703 154.677 190.922 154.695C191.147 154.707 191.334 154.728 191.481 154.757V157.713C191.345 157.666 191.129 157.625 190.833 157.589C190.543 157.548 190.262 157.527 189.99 157.527C189.404 157.527 188.877 157.654 188.41 157.909C187.948 158.157 187.584 158.504 187.318 158.947C187.051 159.391 186.918 159.903 186.918 160.483V168.5H183.705ZM193.117 168.5V154.864H196.188V157.181H196.348C196.632 156.4 197.103 155.79 197.76 155.352C198.417 154.908 199.201 154.686 200.112 154.686C201.036 154.686 201.814 154.911 202.447 155.361C203.086 155.805 203.536 156.411 203.797 157.181H203.939C204.241 156.423 204.75 155.819 205.466 155.37C206.188 154.914 207.043 154.686 208.031 154.686C209.286 154.686 210.31 155.083 211.103 155.876C211.896 156.669 212.293 157.826 212.293 159.347V168.5H209.07V159.844C209.07 158.998 208.845 158.379 208.395 157.989C207.946 157.592 207.395 157.394 206.744 157.394C205.969 157.394 205.362 157.636 204.924 158.122C204.492 158.601 204.276 159.226 204.276 159.995V168.5H201.124V159.711C201.124 159.007 200.911 158.444 200.485 158.024C200.065 157.604 199.515 157.394 198.834 157.394C198.372 157.394 197.952 157.512 197.573 157.749C197.194 157.98 196.893 158.308 196.668 158.734C196.443 159.155 196.33 159.646 196.33 160.208V168.5H193.117ZM227.564 154.864V157.349H219.724V154.864H227.564ZM221.66 151.597H224.874V164.398C224.874 164.83 224.939 165.162 225.069 165.393C225.205 165.618 225.383 165.772 225.602 165.854C225.821 165.937 226.063 165.979 226.33 165.979C226.531 165.979 226.714 165.964 226.88 165.934C227.052 165.905 227.182 165.878 227.271 165.854L227.812 168.367C227.641 168.426 227.395 168.491 227.075 168.562C226.762 168.633 226.377 168.675 225.921 168.686C225.116 168.71 224.391 168.589 223.746 168.322C223.101 168.05 222.589 167.63 222.21 167.062C221.837 166.494 221.654 165.783 221.66 164.931V151.597ZM235.553 168.766C234.221 168.766 233.067 168.473 232.091 167.887C231.114 167.301 230.357 166.482 229.818 165.428C229.285 164.375 229.019 163.144 229.019 161.735C229.019 160.326 229.285 159.092 229.818 158.033C230.357 156.974 231.114 156.151 232.091 155.565C233.067 154.979 234.221 154.686 235.553 154.686C236.885 154.686 238.039 154.979 239.015 155.565C239.992 156.151 240.747 156.974 241.279 158.033C241.818 159.092 242.087 160.326 242.087 161.735C242.087 163.144 241.818 164.375 241.279 165.428C240.747 166.482 239.992 167.301 239.015 167.887C238.039 168.473 236.885 168.766 235.553 168.766ZM235.571 166.192C236.293 166.192 236.897 165.993 237.382 165.597C237.867 165.194 238.228 164.656 238.465 163.981C238.708 163.306 238.829 162.555 238.829 161.726C238.829 160.892 238.708 160.137 238.465 159.462C238.228 158.782 237.867 158.24 237.382 157.838C236.897 157.435 236.293 157.234 235.571 157.234C234.831 157.234 234.215 157.435 233.724 157.838C233.239 158.24 232.875 158.782 232.632 159.462C232.395 160.137 232.277 160.892 232.277 161.726C232.277 162.555 232.395 163.306 232.632 163.981C232.875 164.656 233.239 165.194 233.724 165.597C234.215 165.993 234.831 166.192 235.571 166.192ZM253.94 168.775C253.076 168.775 252.298 168.621 251.605 168.314C250.919 168 250.374 167.538 249.972 166.929C249.575 166.319 249.377 165.567 249.377 164.674C249.377 163.904 249.519 163.268 249.803 162.765C250.087 162.262 250.475 161.859 250.966 161.558C251.457 161.256 252.011 161.028 252.626 160.874C253.248 160.714 253.89 160.599 254.553 160.528C255.352 160.445 256 160.371 256.497 160.306C256.994 160.235 257.355 160.128 257.58 159.986C257.811 159.838 257.926 159.61 257.926 159.303V159.249C257.926 158.58 257.728 158.063 257.331 157.696C256.935 157.329 256.364 157.145 255.618 157.145C254.831 157.145 254.206 157.317 253.745 157.66C253.289 158.003 252.981 158.409 252.821 158.876L249.821 158.45C250.057 157.622 250.448 156.929 250.993 156.373C251.537 155.811 252.203 155.39 252.99 155.112C253.777 154.828 254.647 154.686 255.6 154.686C256.257 154.686 256.911 154.763 257.562 154.917C258.213 155.071 258.808 155.325 259.347 155.68C259.885 156.03 260.317 156.506 260.643 157.11C260.974 157.713 261.14 158.468 261.14 159.374V168.5H258.05V166.627H257.944C257.749 167.006 257.473 167.361 257.118 167.692C256.769 168.018 256.328 168.281 255.795 168.482C255.269 168.678 254.65 168.775 253.94 168.775ZM254.775 166.414C255.42 166.414 255.979 166.286 256.452 166.032C256.926 165.772 257.29 165.428 257.544 165.002C257.805 164.576 257.935 164.111 257.935 163.608V162.001C257.834 162.084 257.663 162.161 257.42 162.232C257.183 162.303 256.917 162.365 256.621 162.419C256.325 162.472 256.032 162.519 255.742 162.561C255.452 162.602 255.201 162.638 254.988 162.667C254.508 162.732 254.079 162.839 253.7 162.987C253.322 163.135 253.023 163.342 252.804 163.608C252.585 163.869 252.475 164.206 252.475 164.62C252.475 165.212 252.691 165.659 253.123 165.961C253.555 166.263 254.106 166.414 254.775 166.414ZM272.563 162.765V154.864H275.777V168.5H272.661V166.076H272.519C272.211 166.84 271.705 167.464 271 167.95C270.302 168.435 269.441 168.678 268.417 168.678C267.523 168.678 266.733 168.479 266.047 168.083C265.366 167.68 264.833 167.097 264.449 166.334C264.064 165.564 263.871 164.635 263.871 163.546V154.864H267.085V163.049C267.085 163.913 267.322 164.6 267.795 165.109C268.269 165.618 268.89 165.872 269.66 165.872C270.133 165.872 270.592 165.757 271.036 165.526C271.48 165.295 271.844 164.952 272.128 164.496C272.418 164.034 272.563 163.457 272.563 162.765ZM285.391 154.864V157.349H277.552V154.864H285.391ZM279.487 151.597H282.701V164.398C282.701 164.83 282.766 165.162 282.896 165.393C283.032 165.618 283.21 165.772 283.429 165.854C283.648 165.937 283.89 165.979 284.157 165.979C284.358 165.979 284.541 165.964 284.707 165.934C284.879 165.905 285.009 165.878 285.098 165.854L285.639 168.367C285.468 168.426 285.222 168.491 284.902 168.562C284.589 168.633 284.204 168.675 283.748 168.686C282.943 168.71 282.218 168.589 281.573 168.322C280.928 168.05 280.416 167.63 280.037 167.062C279.665 166.494 279.481 165.783 279.487 164.931V151.597ZM293.38 168.766C292.049 168.766 290.894 168.473 289.918 167.887C288.941 167.301 288.184 166.482 287.645 165.428C287.112 164.375 286.846 163.144 286.846 161.735C286.846 160.326 287.112 159.092 287.645 158.033C288.184 156.974 288.941 156.151 289.918 155.565C290.894 154.979 292.049 154.686 293.38 154.686C294.712 154.686 295.866 154.979 296.843 155.565C297.819 156.151 298.574 156.974 299.106 158.033C299.645 159.092 299.914 160.326 299.914 161.735C299.914 163.144 299.645 164.375 299.106 165.428C298.574 166.482 297.819 167.301 296.843 167.887C295.866 168.473 294.712 168.766 293.38 168.766ZM293.398 166.192C294.12 166.192 294.724 165.993 295.209 165.597C295.694 165.194 296.055 164.656 296.292 163.981C296.535 163.306 296.656 162.555 296.656 161.726C296.656 160.892 296.535 160.137 296.292 159.462C296.055 158.782 295.694 158.24 295.209 157.838C294.724 157.435 294.12 157.234 293.398 157.234C292.658 157.234 292.043 157.435 291.551 157.838C291.066 158.24 290.702 158.782 290.459 159.462C290.223 160.137 290.104 160.892 290.104 161.726C290.104 162.555 290.223 163.306 290.459 163.981C290.702 164.656 291.066 165.194 291.551 165.597C292.043 165.993 292.658 166.192 293.398 166.192ZM302.142 168.5V154.864H305.214V157.181H305.374C305.658 156.4 306.128 155.79 306.785 155.352C307.442 154.908 308.226 154.686 309.138 154.686C310.061 154.686 310.839 154.911 311.473 155.361C312.112 155.805 312.562 156.411 312.822 157.181H312.964C313.266 156.423 313.775 155.819 314.491 155.37C315.213 154.914 316.068 154.686 317.057 154.686C318.312 154.686 319.335 155.083 320.129 155.876C320.922 156.669 321.318 157.826 321.318 159.347V168.5H318.095V159.844C318.095 158.998 317.871 158.379 317.421 157.989C316.971 157.592 316.421 157.394 315.769 157.394C314.994 157.394 314.388 157.636 313.95 158.122C313.517 158.601 313.301 159.226 313.301 159.995V168.5H310.15V159.711C310.15 159.007 309.937 158.444 309.511 158.024C309.09 157.604 308.54 157.394 307.859 157.394C307.398 157.394 306.977 157.512 306.599 157.749C306.22 157.98 305.918 158.308 305.693 158.734C305.468 159.155 305.356 159.646 305.356 160.208V168.5H302.142ZM328.003 168.775C327.138 168.775 326.36 168.621 325.668 168.314C324.981 168 324.437 167.538 324.034 166.929C323.638 166.319 323.439 165.567 323.439 164.674C323.439 163.904 323.581 163.268 323.865 162.765C324.15 162.262 324.537 161.859 325.028 161.558C325.52 161.256 326.073 161.028 326.689 160.874C327.31 160.714 327.952 160.599 328.615 160.528C329.414 160.445 330.062 160.371 330.559 160.306C331.057 160.235 331.418 160.128 331.642 159.986C331.873 159.838 331.989 159.61 331.989 159.303V159.249C331.989 158.58 331.79 158.063 331.394 157.696C330.997 157.329 330.426 157.145 329.68 157.145C328.893 157.145 328.269 157.317 327.807 157.66C327.351 158.003 327.044 158.409 326.884 158.876L323.883 158.45C324.12 157.622 324.511 156.929 325.055 156.373C325.6 155.811 326.265 155.39 327.053 155.112C327.84 154.828 328.71 154.686 329.663 154.686C330.32 154.686 330.974 154.763 331.625 154.917C332.276 155.071 332.871 155.325 333.409 155.68C333.948 156.03 334.38 156.506 334.705 157.11C335.037 157.713 335.202 158.468 335.202 159.374V168.5H332.113V166.627H332.006C331.811 167.006 331.536 167.361 331.181 167.692C330.832 168.018 330.391 168.281 329.858 168.482C329.331 168.678 328.713 168.775 328.003 168.775ZM328.837 166.414C329.482 166.414 330.041 166.286 330.515 166.032C330.988 165.772 331.352 165.428 331.607 165.002C331.867 164.576 331.998 164.111 331.998 163.608V162.001C331.897 162.084 331.725 162.161 331.483 162.232C331.246 162.303 330.98 162.365 330.684 162.419C330.388 162.472 330.095 162.519 329.805 162.561C329.515 162.602 329.263 162.638 329.05 162.667C328.571 162.732 328.142 162.839 327.763 162.987C327.384 163.135 327.085 163.342 326.866 163.608C326.647 163.869 326.538 164.206 326.538 164.62C326.538 165.212 326.754 165.659 327.186 165.961C327.618 166.263 328.168 166.414 328.837 166.414ZM344.743 154.864V157.349H336.904V154.864H344.743ZM338.84 151.597H342.053V164.398C342.053 164.83 342.118 165.162 342.249 165.393C342.385 165.618 342.562 165.772 342.781 165.854C343 165.937 343.243 165.979 343.509 165.979C343.711 165.979 343.894 165.964 344.06 165.934C344.231 165.905 344.362 165.878 344.45 165.854L344.992 168.367C344.82 168.426 344.575 168.491 344.255 168.562C343.941 168.633 343.557 168.675 343.101 168.686C342.296 168.71 341.571 168.589 340.926 168.322C340.281 168.05 339.769 167.63 339.39 167.062C339.017 166.494 338.834 165.783 338.84 164.931V151.597ZM352.822 168.766C351.454 168.766 350.274 168.482 349.279 167.914C348.291 167.34 347.53 166.529 346.998 165.482C346.465 164.428 346.199 163.188 346.199 161.762C346.199 160.359 346.465 159.128 346.998 158.069C347.536 157.003 348.288 156.175 349.253 155.583C350.217 154.985 351.351 154.686 352.653 154.686C353.493 154.686 354.286 154.822 355.032 155.094C355.784 155.361 356.447 155.775 357.021 156.337C357.601 156.9 358.056 157.616 358.388 158.486C358.719 159.35 358.885 160.38 358.885 161.575V162.561H347.708V160.395H355.804C355.799 159.779 355.665 159.232 355.405 158.752C355.145 158.267 354.781 157.885 354.313 157.607C353.851 157.329 353.313 157.19 352.697 157.19C352.04 157.19 351.463 157.349 350.966 157.669C350.469 157.983 350.081 158.397 349.803 158.912C349.531 159.421 349.392 159.98 349.386 160.59V162.481C349.386 163.274 349.531 163.955 349.821 164.523C350.111 165.085 350.516 165.517 351.037 165.819C351.558 166.115 352.168 166.263 352.866 166.263C353.333 166.263 353.757 166.198 354.135 166.067C354.514 165.931 354.843 165.733 355.121 165.473C355.399 165.212 355.609 164.89 355.751 164.505L358.752 164.842C358.563 165.635 358.201 166.328 357.669 166.92C357.142 167.506 356.467 167.961 355.645 168.287C354.822 168.607 353.881 168.766 352.822 168.766ZM370.729 168.775C369.865 168.775 369.087 168.621 368.394 168.314C367.708 168 367.163 167.538 366.761 166.929C366.364 166.319 366.166 165.567 366.166 164.674C366.166 163.904 366.308 163.268 366.592 162.765C366.876 162.262 367.264 161.859 367.755 161.558C368.246 161.256 368.8 161.028 369.415 160.874C370.037 160.714 370.679 160.599 371.342 160.528C372.141 160.445 372.789 160.371 373.286 160.306C373.783 160.235 374.144 160.128 374.369 159.986C374.6 159.838 374.715 159.61 374.715 159.303V159.249C374.715 158.58 374.517 158.063 374.12 157.696C373.724 157.329 373.153 157.145 372.407 157.145C371.62 157.145 370.995 157.317 370.534 157.66C370.078 158.003 369.77 158.409 369.61 158.876L366.61 158.45C366.847 157.622 367.237 156.929 367.782 156.373C368.326 155.811 368.992 155.39 369.779 155.112C370.566 154.828 371.436 154.686 372.389 154.686C373.046 154.686 373.7 154.763 374.351 154.917C375.002 155.071 375.597 155.325 376.136 155.68C376.674 156.03 377.106 156.506 377.432 157.11C377.763 157.713 377.929 158.468 377.929 159.374V168.5H374.84V166.627H374.733C374.538 167.006 374.262 167.361 373.907 167.692C373.558 168.018 373.117 168.281 372.585 168.482C372.058 168.678 371.439 168.775 370.729 168.775ZM371.564 166.414C372.209 166.414 372.768 166.286 373.242 166.032C373.715 165.772 374.079 165.428 374.333 165.002C374.594 164.576 374.724 164.111 374.724 163.608V162.001C374.624 162.084 374.452 162.161 374.209 162.232C373.972 162.303 373.706 162.365 373.41 162.419C373.114 162.472 372.821 162.519 372.531 162.561C372.241 162.602 371.99 162.638 371.777 162.667C371.297 162.732 370.868 162.839 370.489 162.987C370.111 163.135 369.812 163.342 369.593 163.608C369.374 163.869 369.264 164.206 369.264 164.62C369.264 165.212 369.48 165.659 369.912 165.961C370.344 166.263 370.895 166.414 371.564 166.414ZM383.874 160.51V168.5H380.661V154.864H383.732V157.181H383.892C384.206 156.417 384.706 155.811 385.392 155.361C386.085 154.911 386.94 154.686 387.958 154.686C388.899 154.686 389.719 154.887 390.417 155.29C391.122 155.692 391.666 156.275 392.051 157.039C392.441 157.802 392.634 158.728 392.628 159.817V168.5H389.414V160.315C389.414 159.403 389.177 158.69 388.704 158.175C388.236 157.66 387.588 157.403 386.76 157.403C386.197 157.403 385.697 157.527 385.259 157.776C384.827 158.018 384.487 158.37 384.238 158.832C383.996 159.294 383.874 159.853 383.874 160.51ZM400.455 168.74C399.384 168.74 398.425 168.464 397.579 167.914C396.733 167.364 396.064 166.565 395.572 165.517C395.081 164.469 394.836 163.197 394.836 161.7C394.836 160.184 395.084 158.906 395.581 157.864C396.084 156.817 396.762 156.027 397.614 155.494C398.467 154.955 399.417 154.686 400.464 154.686C401.263 154.686 401.92 154.822 402.435 155.094C402.95 155.361 403.358 155.683 403.66 156.062C403.962 156.435 404.196 156.787 404.362 157.119H404.495V150.318H407.717V168.5H404.557V166.352H404.362C404.196 166.683 403.956 167.035 403.642 167.408C403.329 167.775 402.914 168.089 402.4 168.349C401.885 168.609 401.237 168.74 400.455 168.74ZM401.352 166.103C402.033 166.103 402.613 165.92 403.092 165.553C403.571 165.18 403.935 164.662 404.184 163.999C404.433 163.336 404.557 162.564 404.557 161.682C404.557 160.8 404.433 160.033 404.184 159.382C403.941 158.731 403.58 158.225 403.101 157.864C402.627 157.503 402.044 157.323 401.352 157.323C400.636 157.323 400.038 157.509 399.559 157.882C399.079 158.255 398.718 158.77 398.476 159.427C398.233 160.084 398.112 160.835 398.112 161.682C398.112 162.534 398.233 163.295 398.476 163.963C398.724 164.626 399.088 165.15 399.568 165.535C400.053 165.914 400.648 166.103 401.352 166.103ZM422.291 168.766C420.96 168.766 419.806 168.473 418.829 167.887C417.852 167.301 417.095 166.482 416.556 165.428C416.024 164.375 415.757 163.144 415.757 161.735C415.757 160.326 416.024 159.092 416.556 158.033C417.095 156.974 417.852 156.151 418.829 155.565C419.806 154.979 420.96 154.686 422.291 154.686C423.623 154.686 424.777 154.979 425.754 155.565C426.73 156.151 427.485 156.974 428.018 158.033C428.556 159.092 428.825 160.326 428.825 161.735C428.825 163.144 428.556 164.375 428.018 165.428C427.485 166.482 426.73 167.301 425.754 167.887C424.777 168.473 423.623 168.766 422.291 168.766ZM422.309 166.192C423.031 166.192 423.635 165.993 424.12 165.597C424.605 165.194 424.967 164.656 425.203 163.981C425.446 163.306 425.567 162.555 425.567 161.726C425.567 160.892 425.446 160.137 425.203 159.462C424.967 158.782 424.605 158.24 424.12 157.838C423.635 157.435 423.031 157.234 422.309 157.234C421.569 157.234 420.954 157.435 420.462 157.838C419.977 158.24 419.613 158.782 419.371 159.462C419.134 160.137 419.015 160.892 419.015 161.726C419.015 162.555 419.134 163.306 419.371 163.981C419.613 164.656 419.977 165.194 420.462 165.597C420.954 165.993 421.569 166.192 422.309 166.192ZM431.053 173.614V154.864H434.214V157.119H434.4C434.566 156.787 434.8 156.435 435.101 156.062C435.403 155.683 435.812 155.361 436.327 155.094C436.841 154.822 437.498 154.686 438.297 154.686C439.351 154.686 440.301 154.955 441.147 155.494C442 156.027 442.674 156.817 443.171 157.864C443.674 158.906 443.926 160.184 443.926 161.7C443.926 163.197 443.68 164.469 443.189 165.517C442.698 166.565 442.029 167.364 441.183 167.914C440.336 168.464 439.378 168.74 438.306 168.74C437.525 168.74 436.877 168.609 436.362 168.349C435.847 168.089 435.433 167.775 435.119 167.408C434.811 167.035 434.572 166.683 434.4 166.352H434.267V173.614H431.053ZM434.205 161.682C434.205 162.564 434.329 163.336 434.578 163.999C434.832 164.662 435.196 165.18 435.67 165.553C436.149 165.92 436.729 166.103 437.41 166.103C438.12 166.103 438.715 165.914 439.194 165.535C439.674 165.15 440.035 164.626 440.277 163.963C440.526 163.295 440.65 162.534 440.65 161.682C440.65 160.835 440.529 160.084 440.286 159.427C440.043 158.77 439.682 158.255 439.203 157.882C438.724 157.509 438.126 157.323 437.41 157.323C436.723 157.323 436.14 157.503 435.661 157.864C435.181 158.225 434.817 158.731 434.569 159.382C434.326 160.033 434.205 160.8 434.205 161.682ZM452.215 168.766C450.848 168.766 449.667 168.482 448.673 167.914C447.684 167.34 446.924 166.529 446.391 165.482C445.859 164.428 445.592 163.188 445.592 161.762C445.592 160.359 445.859 159.128 446.391 158.069C446.93 157.003 447.681 156.175 448.646 155.583C449.611 154.985 450.744 154.686 452.046 154.686C452.887 154.686 453.68 154.822 454.426 155.094C455.177 155.361 455.84 155.775 456.414 156.337C456.994 156.9 457.45 157.616 457.781 158.486C458.113 159.35 458.279 160.38 458.279 161.575V162.561H447.101V160.395H455.198C455.192 159.779 455.059 159.232 454.799 158.752C454.538 158.267 454.174 157.885 453.707 157.607C453.245 157.329 452.706 157.19 452.091 157.19C451.434 157.19 450.857 157.349 450.36 157.669C449.862 157.983 449.475 158.397 449.197 158.912C448.924 159.421 448.785 159.98 448.779 160.59V162.481C448.779 163.274 448.924 163.955 449.214 164.523C449.504 165.085 449.91 165.517 450.431 165.819C450.951 166.115 451.561 166.263 452.259 166.263C452.727 166.263 453.15 166.198 453.529 166.067C453.908 165.931 454.236 165.733 454.514 165.473C454.793 165.212 455.003 164.89 455.145 164.505L458.145 164.842C457.956 165.635 457.595 166.328 457.062 166.92C456.536 167.506 455.861 167.961 455.038 168.287C454.216 168.607 453.274 168.766 452.215 168.766ZM460.497 168.5V154.864H463.614V157.136H463.756C464.004 156.349 464.43 155.743 465.034 155.316C465.644 154.884 466.339 154.668 467.12 154.668C467.298 154.668 467.496 154.677 467.715 154.695C467.94 154.707 468.126 154.728 468.274 154.757V157.713C468.138 157.666 467.922 157.625 467.626 157.589C467.336 157.548 467.055 157.527 466.783 157.527C466.197 157.527 465.67 157.654 465.203 157.909C464.741 158.157 464.377 158.504 464.111 158.947C463.844 159.391 463.711 159.903 463.711 160.483V168.5H460.497ZM473.589 168.775C472.725 168.775 471.947 168.621 471.255 168.314C470.568 168 470.024 167.538 469.621 166.929C469.225 166.319 469.026 165.567 469.026 164.674C469.026 163.904 469.168 163.268 469.452 162.765C469.736 162.262 470.124 161.859 470.615 161.558C471.107 161.256 471.66 161.028 472.276 160.874C472.897 160.714 473.539 160.599 474.202 160.528C475.001 160.445 475.649 160.371 476.146 160.306C476.643 160.235 477.004 160.128 477.229 159.986C477.46 159.838 477.576 159.61 477.576 159.303V159.249C477.576 158.58 477.377 158.063 476.981 157.696C476.584 157.329 476.013 157.145 475.267 157.145C474.48 157.145 473.856 157.317 473.394 157.66C472.938 158.003 472.631 158.409 472.471 158.876L469.47 158.45C469.707 157.622 470.097 156.929 470.642 156.373C471.187 155.811 471.852 155.39 472.64 155.112C473.427 154.828 474.297 154.686 475.25 154.686C475.907 154.686 476.561 154.763 477.212 154.917C477.863 155.071 478.457 155.325 478.996 155.68C479.535 156.03 479.967 156.506 480.292 157.11C480.624 157.713 480.789 158.468 480.789 159.374V168.5H477.7V166.627H477.593C477.398 167.006 477.123 167.361 476.768 167.692C476.419 168.018 475.978 168.281 475.445 168.482C474.918 168.678 474.3 168.775 473.589 168.775ZM474.424 166.414C475.069 166.414 475.628 166.286 476.102 166.032C476.575 165.772 476.939 165.428 477.194 165.002C477.454 164.576 477.584 164.111 477.584 163.608V162.001C477.484 162.084 477.312 162.161 477.07 162.232C476.833 162.303 476.566 162.365 476.271 162.419C475.975 162.472 475.682 162.519 475.392 162.561C475.102 162.602 474.85 162.638 474.637 162.667C474.158 162.732 473.729 162.839 473.35 162.987C472.971 163.135 472.672 163.342 472.453 163.608C472.234 163.869 472.125 164.206 472.125 164.62C472.125 165.212 472.341 165.659 472.773 165.961C473.205 166.263 473.755 166.414 474.424 166.414ZM490.33 154.864V157.349H482.491V154.864H490.33ZM484.426 151.597H487.64V164.398C487.64 164.83 487.705 165.162 487.836 165.393C487.972 165.618 488.149 165.772 488.368 165.854C488.587 165.937 488.83 165.979 489.096 165.979C489.297 165.979 489.481 165.964 489.647 165.934C489.818 165.905 489.948 165.878 490.037 165.854L490.579 168.367C490.407 168.426 490.162 168.491 489.842 168.562C489.528 168.633 489.144 168.675 488.688 168.686C487.883 168.71 487.158 168.589 486.513 168.322C485.868 168.05 485.356 167.63 484.977 167.062C484.604 166.494 484.421 165.783 484.426 164.931V151.597ZM498.408 168.766C497.041 168.766 495.86 168.482 494.866 167.914C493.878 167.34 493.117 166.529 492.585 165.482C492.052 164.428 491.786 163.188 491.786 161.762C491.786 160.359 492.052 159.128 492.585 158.069C493.123 157.003 493.875 156.175 494.84 155.583C495.804 154.985 496.938 154.686 498.24 154.686C499.08 154.686 499.873 154.822 500.619 155.094C501.371 155.361 502.034 155.775 502.608 156.337C503.188 156.9 503.643 157.616 503.975 158.486C504.306 159.35 504.472 160.38 504.472 161.575V162.561H493.295V160.395H501.391C501.385 159.779 501.252 159.232 500.992 158.752C500.731 158.267 500.367 157.885 499.9 157.607C499.438 157.329 498.9 157.19 498.284 157.19C497.627 157.19 497.05 157.349 496.553 157.669C496.056 157.983 495.668 158.397 495.39 158.912C495.118 159.421 494.979 159.98 494.973 160.59V162.481C494.973 163.274 495.118 163.955 495.408 164.523C495.698 165.085 496.103 165.517 496.624 165.819C497.145 166.115 497.754 166.263 498.453 166.263C498.92 166.263 499.344 166.198 499.722 166.067C500.101 165.931 500.43 165.733 500.708 165.473C500.986 165.212 501.196 164.89 501.338 164.505L504.339 164.842C504.149 165.635 503.788 166.328 503.256 166.92C502.729 167.506 502.054 167.961 501.232 168.287C500.409 168.607 499.468 168.766 498.408 168.766ZM515.206 168.5L511.353 154.864H514.629L517.026 164.452H517.151L519.601 154.864H522.841L525.292 164.398H525.425L527.786 154.864H531.071L527.209 168.5H523.862L521.305 159.285H521.119L518.562 168.5H515.206ZM538.372 168.766C537.041 168.766 535.887 168.473 534.91 167.887C533.933 167.301 533.176 166.482 532.637 165.428C532.105 164.375 531.838 163.144 531.838 161.735C531.838 160.326 532.105 159.092 532.637 158.033C533.176 156.974 533.933 156.151 534.91 155.565C535.887 154.979 537.041 154.686 538.372 154.686C539.704 154.686 540.858 154.979 541.835 155.565C542.811 156.151 543.566 156.974 544.099 158.033C544.637 159.092 544.906 160.326 544.906 161.735C544.906 163.144 544.637 164.375 544.099 165.428C543.566 166.482 542.811 167.301 541.835 167.887C540.858 168.473 539.704 168.766 538.372 168.766ZM538.39 166.192C539.112 166.192 539.716 165.993 540.201 165.597C540.687 165.194 541.048 164.656 541.284 163.981C541.527 163.306 541.648 162.555 541.648 161.726C541.648 160.892 541.527 160.137 541.284 159.462C541.048 158.782 540.687 158.24 540.201 157.838C539.716 157.435 539.112 157.234 538.39 157.234C537.65 157.234 537.035 157.435 536.544 157.838C536.058 158.24 535.694 158.782 535.452 159.462C535.215 160.137 535.096 160.892 535.096 161.726C535.096 162.555 535.215 163.306 535.452 163.981C535.694 164.656 536.058 165.194 536.544 165.597C537.035 165.993 537.65 166.192 538.39 166.192ZM547.134 168.5V154.864H550.25V157.136H550.392C550.641 156.349 551.067 155.743 551.671 155.316C552.28 154.884 552.976 154.668 553.757 154.668C553.935 154.668 554.133 154.677 554.352 154.695C554.577 154.707 554.763 154.728 554.911 154.757V157.713C554.775 157.666 554.559 157.625 554.263 157.589C553.973 157.548 553.692 157.527 553.42 157.527C552.834 157.527 552.307 157.654 551.839 157.909C551.378 158.157 551.014 158.504 550.747 158.947C550.481 159.391 550.348 159.903 550.348 160.483V168.5H547.134ZM559.476 164.221L559.467 160.341H559.982L564.883 154.864H568.638L562.61 161.575H561.944L559.476 164.221ZM556.546 168.5V150.318H559.76V168.5H556.546ZM565.105 168.5L560.666 162.294L562.832 160.031L568.949 168.5H565.105ZM577.187 154.864V157.349H569.126V154.864H577.187ZM571.141 168.5V153.576C571.141 152.659 571.33 151.895 571.709 151.286C572.094 150.676 572.609 150.221 573.254 149.919C573.899 149.617 574.615 149.466 575.402 149.466C575.959 149.466 576.453 149.51 576.885 149.599C577.317 149.688 577.636 149.768 577.844 149.839L577.204 152.325C577.068 152.283 576.897 152.242 576.689 152.2C576.482 152.153 576.252 152.129 575.997 152.129C575.399 152.129 574.976 152.274 574.727 152.564C574.485 152.848 574.364 153.257 574.364 153.789V168.5H571.141ZM582.417 150.318V168.5H579.204V150.318H582.417ZM591.17 168.766C589.839 168.766 588.684 168.473 587.708 167.887C586.731 167.301 585.974 166.482 585.435 165.428C584.902 164.375 584.636 163.144 584.636 161.735C584.636 160.326 584.902 159.092 585.435 158.033C585.974 156.974 586.731 156.151 587.708 155.565C588.684 154.979 589.839 154.686 591.17 154.686C592.502 154.686 593.656 154.979 594.633 155.565C595.609 156.151 596.364 156.974 596.896 158.033C597.435 159.092 597.704 160.326 597.704 161.735C597.704 163.144 597.435 164.375 596.896 165.428C596.364 166.482 595.609 167.301 594.633 167.887C593.656 168.473 592.502 168.766 591.17 168.766ZM591.188 166.192C591.91 166.192 592.514 165.993 592.999 165.597C593.484 165.194 593.845 164.656 594.082 163.981C594.325 163.306 594.446 162.555 594.446 161.726C594.446 160.892 594.325 160.137 594.082 159.462C593.845 158.782 593.484 158.24 592.999 157.838C592.514 157.435 591.91 157.234 591.188 157.234C590.448 157.234 589.833 157.435 589.341 157.838C588.856 158.24 588.492 158.782 588.249 159.462C588.013 160.137 587.894 160.892 587.894 161.726C587.894 162.555 588.013 163.306 588.249 163.981C588.492 164.656 588.856 165.194 589.341 165.597C589.833 165.993 590.448 166.192 591.188 166.192ZM602.356 168.5L598.503 154.864H601.779L604.176 164.452H604.3L606.75 154.864H609.991L612.441 164.398H612.574L614.936 154.864H618.22L614.359 168.5H611.012L608.455 159.285H608.268L605.712 168.5H602.356ZM630.742 158.468L627.812 158.788C627.729 158.492 627.584 158.214 627.377 157.953C627.176 157.693 626.904 157.483 626.561 157.323C626.217 157.163 625.797 157.083 625.3 157.083C624.631 157.083 624.069 157.228 623.613 157.518C623.163 157.808 622.941 158.184 622.947 158.646C622.941 159.042 623.086 159.365 623.382 159.613C623.684 159.862 624.181 160.066 624.874 160.226L627.2 160.723C628.49 161.001 629.449 161.442 630.076 162.046C630.709 162.65 631.029 163.44 631.035 164.416C631.029 165.274 630.777 166.032 630.28 166.689C629.789 167.34 629.105 167.849 628.23 168.216C627.354 168.583 626.347 168.766 625.211 168.766C623.542 168.766 622.199 168.417 621.181 167.719C620.163 167.014 619.556 166.035 619.361 164.78L622.494 164.478C622.636 165.094 622.938 165.558 623.4 165.872C623.862 166.186 624.462 166.343 625.202 166.343C625.966 166.343 626.578 166.186 627.04 165.872C627.507 165.558 627.741 165.171 627.741 164.709C627.741 164.319 627.59 163.996 627.288 163.741C626.993 163.487 626.531 163.292 625.904 163.156L623.578 162.667C622.27 162.395 621.302 161.936 620.674 161.291C620.047 160.64 619.736 159.817 619.742 158.823C619.736 157.983 619.964 157.255 620.426 156.639C620.893 156.018 621.542 155.538 622.37 155.201C623.205 154.858 624.166 154.686 625.255 154.686C626.853 154.686 628.111 155.026 629.029 155.707C629.952 156.388 630.523 157.308 630.742 158.468Z" fill="url(#paint2_linear_6_6)"/>
<defs>
<linearGradient id="paint0_linear_6_6" x1="60.9997" y1="23.9675" x2="60.9997" y2="68.0018" gradientUnits="userSpaceOnUse">
<stop stop-color="#6D7073"/>
<stop offset="1" stop-color="#14191E"/>
</linearGradient>
<linearGradient id="paint1_linear_6_6" x1="382.5" y1="32.4481" x2="382.5" y2="120.5" gradientUnits="userSpaceOnUse">
<stop stop-color="#6D7073"/>
<stop offset="1" stop-color="#14191E"/>
</linearGradient>
<linearGradient id="paint2_linear_6_6" x1="316.5" y1="152.487" x2="316.5" y2="174.5" gradientUnits="userSpaceOnUse">
<stop stop-color="#6D7073"/>
<stop offset="1" stop-color="#14191E"/>
</linearGradient>
</defs>
</svg>
