<svg width="40" height="40" viewBox="0 0 40 40" fill="none" xmlns="http://www.w3.org/2000/svg">
<path d="M34.3751 26.4219L20.0001 34.7969L5.62506 26.4219C5.34137 26.2858 5.01681 26.2617 4.71615 26.3544C4.41549 26.4471 4.16085 26.6498 4.00305 26.922C3.84525 27.1942 3.79591 27.5159 3.86487 27.8229C3.93382 28.1299 4.11601 28.3995 4.37506 28.5781L19.3751 37.3281C19.564 37.441 19.78 37.5006 20.0001 37.5006C20.2201 37.5006 20.4361 37.441 20.6251 37.3281L35.6251 28.5781C35.7805 28.5036 35.9188 28.3977 36.0313 28.2671C36.1439 28.1365 36.2282 27.9841 36.279 27.8194C36.3298 27.6547 36.3459 27.4812 36.3265 27.3099C36.307 27.1387 36.2524 26.9733 36.1659 26.8241C36.0794 26.675 35.9631 26.5454 35.8241 26.4434C35.6852 26.3414 35.5266 26.2692 35.3584 26.2314C35.1903 26.1937 35.0161 26.1911 34.8468 26.2238C34.6776 26.2566 34.517 26.324 34.3751 26.4219Z" fill="#838383"/>
<path d="M34.3751 18.9219L20.0001 27.2969L5.62506 18.9219C5.34137 18.7858 5.01681 18.7617 4.71615 18.8544C4.41549 18.9471 4.16085 19.1498 4.00305 19.422C3.84525 19.6942 3.79591 20.0159 3.86487 20.3229C3.93382 20.6299 4.11601 20.8995 4.37506 21.0781L19.3751 29.8281C19.564 29.941 19.78 30.0006 20.0001 30.0006C20.2201 30.0006 20.4361 29.941 20.6251 29.8281L35.6251 21.0781C35.7805 21.0036 35.9188 20.8977 36.0313 20.7671C36.1439 20.6365 36.2282 20.4841 36.279 20.3194C36.3298 20.1547 36.3459 19.9812 36.3265 19.8099C36.307 19.6387 36.2524 19.4733 36.1659 19.3241C36.0794 19.175 35.9631 19.0454 35.8241 18.9434C35.6852 18.8414 35.5266 18.7692 35.3584 18.7314C35.1903 18.6937 35.0161 18.6911 34.8468 18.7238C34.6776 18.7566 34.517 18.824 34.3751 18.9219Z" fill="#838383"/>
<path d="M4.375 13.5782L19.375 22.3282C19.5639 22.441 19.7799 22.5006 20 22.5006C20.2201 22.5006 20.4361 22.441 20.625 22.3282L35.625 13.5782C35.813 13.4679 35.9688 13.3103 36.0771 13.1212C36.1854 12.9321 36.2424 12.718 36.2424 12.5C36.2424 12.2821 36.1854 12.0679 36.0771 11.8788C35.9688 11.6897 35.813 11.5322 35.625 11.4219L20.625 2.6719C20.4366 2.55739 20.2204 2.49683 20 2.49683C19.7796 2.49683 19.5634 2.55739 19.375 2.6719L4.375 11.4219C4.18703 11.5322 4.03116 11.6897 3.92285 11.8788C3.81455 12.0679 3.75757 12.2821 3.75757 12.5C3.75757 12.718 3.81455 12.9321 3.92285 13.1212C4.03116 13.3103 4.18703 13.4679 4.375 13.5782Z" fill="url(#paint0_linear_461_20309)"/>
<defs>
<linearGradient id="paint0_linear_461_20309" x1="20" y1="7.82251" x2="20" y2="22.5006" gradientUnits="userSpaceOnUse">
<stop stop-color="white"/>
<stop offset="1" stop-color="#808080"/>
</linearGradient>
</defs>
</svg>
